<svg width="233" height="324" viewBox="0 0 233 324" fill="none" xmlns="http://www.w3.org/2000/svg">
<path d="M114.388 91.5009C114.517 92.4736 113.562 93.2811 112.46 93.1342C111.854 93.0608 111.083 92.9507 110.11 92.8223C107.373 92.4736 103.021 92.6387 94.7758 91.4459C83.2249 89.7759 78.2116 85.0411 73.1799 77.8839C68.993 71.9563 65.5773 64.7624 63.2818 60.7434C62.7309 59.7891 63.5205 58.6697 64.7509 58.633C66.3302 58.5963 68.2217 58.5596 69.4153 58.5963C74.7408 58.7614 85.9428 60.7251 94.2065 64.4688C103.517 68.6897 109.136 74.0851 112.221 81.6093C113.25 84.0501 114.021 88.8216 114.388 91.5009Z" fill="black"/>
<path d="M112.717 94.5107C112.57 94.5107 112.423 94.5107 112.295 94.4924L109.944 94.1804C109.044 94.0703 107.943 94.0152 106.547 93.9418C103.811 93.795 100.046 93.5931 94.6105 92.804C82.9127 91.1156 77.4954 86.3442 72.0964 78.6731C69.048 74.3421 66.4404 69.4239 64.3285 65.4599C63.5205 63.9367 62.786 62.542 62.1433 61.4225C61.6658 60.5967 61.6658 59.6057 62.1433 58.7799C62.6574 57.8623 63.6674 57.275 64.7876 57.2567C66.9178 57.2016 68.5155 57.2016 69.5439 57.22C74.9428 57.4035 86.3835 59.3671 94.8676 63.221C104.417 67.5336 110.348 73.2227 113.58 81.0956C114.572 83.5364 115.343 87.9775 115.802 91.2991C115.931 92.1433 115.637 92.9875 115.031 93.5931C114.388 94.1987 113.562 94.5107 112.717 94.5107ZM68.0748 59.9544C67.1933 59.9544 66.0915 59.9727 64.806 60.0094C64.5856 60.0094 64.4938 60.1195 64.4938 60.1379C65.1549 61.2023 65.8895 62.6154 66.7158 64.1753C68.791 68.0658 71.3619 72.9107 74.3001 77.0949C79.3869 84.3071 84.1798 88.528 94.9594 90.0879C100.285 90.8587 103.976 91.0606 106.657 91.189C108.126 91.2624 109.283 91.3359 110.275 91.4643L112.644 91.7579C112.864 91.7946 112.993 91.7029 113.029 91.6478C112.423 87.2618 111.67 83.8116 110.991 82.1416C107.998 74.856 102.672 69.7909 93.6923 65.7352C85.5571 62.0465 74.5939 60.1562 69.4153 59.9911C69.048 59.9727 68.5889 59.9544 68.0748 59.9544Z" fill="white"/>
<path d="M118.612 91.5568C118.484 92.4927 119.42 93.2818 120.485 93.135C121.11 93.0616 121.899 92.9515 122.891 92.8231C125.627 92.4744 129.979 92.6395 138.225 91.4467C149.776 89.7767 154.789 85.0419 159.821 77.8847C164.558 71.168 168.323 62.7996 170.563 59.3128C170.747 59.0375 170.508 58.6888 170.141 58.6888C168.617 58.6338 165.33 58.542 163.548 58.5971C158.223 58.7622 147.021 60.7259 138.757 64.4696C129.447 68.6905 123.828 74.0859 120.742 81.6101C119.769 84.0509 118.979 88.8958 118.612 91.5568Z" fill="black"/>
<path d="M120.246 94.5302C119.402 94.5302 118.594 94.1998 118.006 93.6126C117.4 93.007 117.125 92.1811 117.235 91.3553C117.62 88.6393 118.41 83.6843 119.475 81.0967C122.707 73.2238 128.657 67.5348 138.188 63.2221C146.672 59.3866 158.094 57.4046 163.512 57.2211C165.293 57.166 168.451 57.2578 170.178 57.3128C170.857 57.3312 171.481 57.7166 171.794 58.3038C172.087 58.8727 172.051 59.5334 171.72 60.0656C170.931 61.2952 169.902 63.2221 168.727 65.461C166.615 69.425 163.989 74.3616 160.941 78.6926C155.542 86.3636 150.124 91.1351 138.427 92.8235C132.972 93.6126 129.226 93.8145 126.49 93.9613C125.076 94.0347 123.974 94.0897 123.093 94.2182L120.687 94.5302C120.54 94.5118 120.393 94.5302 120.246 94.5302ZM119.989 91.6857C120.044 91.7224 120.155 91.7958 120.32 91.7591L122.725 91.4471C123.717 91.3186 124.874 91.2636 126.343 91.1718C129.024 91.025 132.715 90.8415 138.041 90.0707C148.82 88.5108 153.613 84.3083 158.7 77.0777C161.657 72.8935 164.228 68.0486 166.303 64.1397C167.129 62.5798 167.882 61.1667 168.543 59.9922C166.964 59.9555 164.87 59.9188 163.622 59.9555C158.443 60.1206 147.498 62.0292 139.363 65.6996C130.383 69.7737 125.039 74.8204 122.064 82.106C121.348 83.8311 120.595 87.2996 119.989 91.6857Z" fill="white"/>
<path d="M119.108 49.6592H113.856V97.5939H119.108V49.6592Z" fill="black"/>
<path d="M120.485 98.9707H112.479V48.2832H120.485V98.9707ZM115.233 96.218H117.731V51.036H115.233V96.218Z" fill="white"/>
<path d="M231.127 197.116C236.893 260.411 190.231 316.348 126.912 322.11C84.4736 325.982 45.322 306.291 22.404 273.808C21.2471 272.175 20.1269 270.505 19.0434 268.817C9.69622 253.952 3.58107 236.683 1.87324 217.964C-0.569151 191.079 6.46419 165.496 20.2187 144.52C36.1768 120.186 61.17 102.109 90.9744 95.3742C95.8776 94.2731 100.928 93.4656 106.051 92.9885C169.351 87.2444 225.361 133.858 231.127 197.116Z" fill="white"/>
<path d="M116.574 323.963C78.9829 323.963 43.1734 305.648 21.2654 274.616C20.2003 273.092 19.0801 271.459 17.8681 269.569C8.15365 254.135 2.14869 236.334 0.477583 218.111C-1.92808 191.666 4.49926 165.955 19.0434 143.786C35.7177 118.369 61.1332 100.714 90.6439 94.0528C95.6939 92.9149 100.817 92.1075 105.904 91.6487C169.865 85.8495 226.665 133.087 232.486 197.006C235.314 227.984 225.893 258.191 205.969 282.085C186.044 305.979 158.021 320.678 127.023 323.505C123.552 323.798 120.063 323.963 116.574 323.963ZM116.684 93.8876C113.195 93.8876 109.687 94.0528 106.18 94.3647C101.221 94.8235 96.2081 95.6127 91.2866 96.7138C62.4738 103.229 37.6459 120.461 21.3572 145.272C7.14365 166.928 0.881587 192.014 3.23215 217.835C4.84817 235.636 10.7246 253.016 20.2003 268.082C21.3756 269.917 22.4591 271.532 23.5242 273.019C46.9013 306.125 86.4753 324.422 126.802 320.752C157.047 317.999 184.428 303.648 203.875 280.323C223.322 256.998 232.523 227.488 229.768 197.263C227.014 167.038 212.635 139.675 189.294 120.259C168.653 103.063 143.201 93.8876 116.684 93.8876Z" fill="white"/>
<path d="M222.735 241.251C226.444 242.793 225.104 245.472 224.773 246.683C223.341 251.767 217.06 264.998 210.302 274.046C195.63 293.664 182.077 302.087 173.263 307.629C166.229 312.052 143.274 324.201 110.973 322.439C109.485 322.384 107.979 322.274 106.455 322.146C64.2917 318.457 29.4556 292.489 12.5058 256.869C11.5876 254.942 10.7245 253.015 9.9165 251.051C16.1786 247.766 29.4923 242.352 46.9747 243.949C71.6005 246.225 91.5987 250.317 101.332 259.768C111.028 269.219 130.861 271.403 133.964 271.807C137.031 272.229 157.874 272.578 168.286 276.046C169.48 276.45 172.069 277.624 173.061 278.01C177.927 275.697 183.693 271.972 188.064 268.357C192.71 264.521 198.164 259.107 200.79 256.483C204.793 252.482 209.88 246.225 211.165 244.83C215.701 239.875 219.65 239.967 222.735 241.251Z" fill="black"/>
<path d="M117.363 323.999C115.251 323.999 113.084 323.944 110.899 323.816C109.412 323.761 107.887 323.651 106.345 323.522C65.3751 319.944 28.9413 294.618 11.2754 257.456C10.3572 255.511 9.47571 253.529 8.64933 251.565L8.17188 250.409L9.29207 249.822C15.7929 246.408 29.3637 240.958 47.1215 242.573C76.5587 245.307 93.5819 250.299 102.305 258.777C108.126 264.466 119.31 268.577 133.78 270.394L134.148 270.449C134.79 270.541 136.443 270.633 138.518 270.761C146.194 271.201 160.481 272.027 168.727 274.762C169.535 275.037 170.857 275.606 171.995 276.083C172.363 276.248 172.712 276.395 173.005 276.523C177.651 274.248 183.032 270.761 187.182 267.311C192.067 263.274 197.907 257.438 199.817 255.529C202.626 252.721 205.987 248.776 208.19 246.17C209.072 245.124 209.77 244.316 210.137 243.912C214.269 239.416 218.676 238.095 223.249 240.004C227.748 241.894 226.609 245.399 226.187 246.72L226.077 247.069C224.571 252.409 218.107 265.898 211.386 274.89C196.676 294.545 183.161 303.042 174.199 308.676L173.979 308.823C168.066 312.53 147.37 323.999 117.363 323.999ZM11.6794 251.694C12.3405 253.235 13.0383 254.777 13.7545 256.282C31.0165 292.563 66.5688 317.283 106.584 320.788C108.089 320.916 109.577 321.026 111.028 321.082C143.733 322.843 166.376 310.364 172.528 306.492L172.748 306.345C181.526 300.821 194.803 292.49 209.182 273.239C215.72 264.485 222 251.455 223.432 246.317C223.469 246.188 223.524 246.023 223.579 245.858C224.075 244.353 224.259 243.38 222.202 242.518C219.998 241.6 216.583 240.939 212.175 245.748C211.808 246.133 211.147 246.922 210.284 247.931C208.044 250.574 204.646 254.556 201.763 257.438C199.817 259.383 193.903 265.292 188.945 269.403C184.464 273.11 178.606 276.872 173.648 279.24L173.116 279.496L172.565 279.276C172.179 279.129 171.591 278.873 170.912 278.579C169.865 278.12 168.543 277.57 167.845 277.331C159.967 274.707 145.9 273.899 138.353 273.477C136.131 273.349 134.515 273.257 133.78 273.147L133.431 273.11C118.153 271.202 106.73 266.926 100.377 260.741C92.1312 252.721 75.6221 247.968 46.8644 245.307C30.7777 243.839 18.272 248.427 11.6794 251.694Z" fill="black"/>
<path d="M156.607 115.799C157.194 117.763 156.074 119.194 153.889 120.002C152.383 120.552 150.418 119.727 149.059 120.736C147.719 121.745 146.396 124.443 144.027 125.306C141.659 126.205 134.864 126.131 134.368 126.737C133.872 127.343 131.173 129.692 129.906 130.371C128.62 131.05 128.271 133.197 126.821 134.114C125.333 135.032 122.046 135.656 121.624 137.142C121.201 138.647 123.423 139.785 122.891 142.501C122.358 145.199 119.861 149.438 120.228 150.961C120.577 152.503 121.826 154.044 120.834 155.476C119.861 156.907 114.829 157.917 113.121 156.173C112.148 155.182 111.707 153.861 111.34 152.65C111.046 151.714 110.771 150.888 110.348 150.301C109.338 148.961 108.898 147.75 106.143 148.245C103.407 148.722 100.175 152.338 98.32 153.751C96.4285 155.127 96.0245 156.742 96.1347 157.953C96.2449 159.146 94.4085 159.77 93.1965 161.091C91.9845 162.431 91.2499 164.064 91.305 165.826C91.3417 167.606 88.477 170.322 88.6973 171.534C88.8993 172.726 93.2699 175.222 94.8676 176.966C96.4652 178.709 101.038 184.949 102.342 185.518C103.462 185.995 110.55 186.949 114.462 186.692C114.921 186.655 115.343 186.582 115.692 186.527C119.071 185.885 121.495 187.793 123.735 191.794C125.994 195.831 128.18 198.951 131.338 199.575C134.515 200.162 141.181 199.3 143.33 199.043C147.131 198.584 146.947 201.043 148.563 202.787C150.161 204.53 155.56 205.961 154.917 210.127C154.293 214.11 147.884 214.972 146.084 218.496C144.303 221.982 143.311 227.194 143.348 229.965C143.403 232.755 142.375 234.058 141.016 234.865C139.657 235.655 136.939 236.682 136.168 239.086C135.378 241.472 133.964 241.839 131.577 241.949C129.19 242.041 127.629 245.638 126.968 248.244C126.306 250.868 125.113 253.658 124.121 254.961C123.129 256.282 118.814 260.136 118.759 262.136C118.741 262.54 118.998 269.091 118.777 270.541C115.968 269.66 108.861 268.651 106.565 267.091C101.974 263.971 98.3934 259.457 91.8743 256.612C92.0946 255.713 93.0863 253.823 93.3434 253.309C95.4919 248.996 94.4636 245.363 93.8025 243.069C93.1414 240.775 92.5537 237.453 90.2766 237.269C88.0179 237.068 84.3451 237.508 83.2616 237.508C82.1782 237.49 79.9378 234.957 78.634 234.994C77.3485 235.031 77.2383 236.572 75.7141 236.939C74.9796 237.123 73.1799 237.655 71.6741 236.554C70.4437 235.655 70.2233 233.691 70.5172 232.7C70.9946 231.122 72.6106 230.131 72.7575 228.112C72.831 227.121 70.6824 225.066 70.5723 223.799C70.4621 222.533 72.4821 218.642 70.6824 216.587C68.7542 214.403 68.5155 210.421 68.7359 209.522C69.1766 207.723 78.3952 198.584 80.7825 198.015C83.1698 197.428 85.3 196.363 87.265 197.354C89.2115 198.309 90.7908 198.162 91.7274 196.822C92.6823 195.483 91.6172 194.216 90.9928 193.482C90.3684 192.748 84.9328 184.894 83.0596 184.215C81.1865 183.554 79.644 183.058 78.5789 183.187C77.5321 183.315 76.7425 182.343 76.0998 181.37C75.457 180.397 71.7659 175.277 69.5255 174.947C67.3035 174.653 64.2918 174.947 62.6942 174.305C61.1149 173.662 58.0481 172.102 57.0381 171.24C56.0281 170.341 54.5957 168.707 53.4205 168.891C52.2452 169.074 51.9514 169.937 49.913 170.084C47.8746 170.212 46.7728 166.689 46.6258 165.11C46.4789 163.532 44.4589 156.32 43.3755 154.687C42.292 153.053 40.878 145.768 38.2887 145.694C35.7361 145.621 24.8464 146.961 23.9282 146.777C22.9733 146.612 21.8714 146.337 20.5492 144.868C20.4391 144.777 20.3472 144.63 20.2371 144.501C36.1952 120.167 61.1883 102.091 90.9928 95.3555C93.2699 97.0071 95.4919 98.6588 95.6389 98.9891C95.9143 99.6131 96.0796 102.513 96.9978 103.962C97.8976 105.449 100.707 107.082 103.241 106.513C104.123 106.311 105.684 106.073 107.006 105.265C108.989 104.073 112.185 103.338 113.195 104.219C115.564 106.33 112.938 109.174 113.488 110.477C114.058 111.762 116.482 113.359 119.751 111.725C122.046 110.587 124.397 112.129 125.205 111.358C126.306 110.294 126.361 109.707 126.821 108.165C127.518 105.853 130.75 107.284 131.797 105.192C132.807 103.082 133.652 102.091 134.992 102.054C136.333 102.054 136.976 103.485 140.171 103.192C143.366 102.898 144.303 101.98 145.754 104.311C147.168 106.623 148.71 112.239 151.171 112.955C152.879 113.505 155.615 112.514 156.607 115.799Z" fill="black"/>
<path d="M119.879 272.358L118.355 271.881C117.473 271.605 116.059 271.293 114.554 270.963C111.266 270.247 107.539 269.44 105.794 268.247C104.105 267.109 102.599 265.825 101.019 264.467C98.2465 262.099 95.3633 259.658 91.3233 257.897L90.2582 257.438L90.5337 256.318C90.754 255.419 91.4702 253.969 92.0762 252.795C94.0411 248.868 93.1046 245.638 92.4802 243.49L92.2231 242.573C91.7824 240.958 91.1948 238.756 90.148 238.664C88.7156 238.536 86.6038 238.682 85.0612 238.811C84.2532 238.866 83.5554 238.921 83.2249 238.903C82.2516 238.884 81.3701 238.224 80.3417 237.471C79.8459 237.104 78.9277 236.425 78.5972 236.388C78.5605 236.425 78.3768 236.645 78.2483 236.774C77.8259 237.269 77.1832 238.003 75.9895 238.297C74.9244 238.554 72.7391 239.104 70.8109 237.673C68.9746 236.333 68.7358 233.691 69.1398 232.314C69.3969 231.433 69.8927 230.736 70.3335 230.13C70.866 229.396 71.27 228.809 71.3251 228.02C71.27 227.91 70.8293 227.268 70.5355 226.827C69.8927 225.891 69.2316 224.919 69.1398 223.928C69.0847 223.304 69.2684 222.606 69.4887 221.725C69.856 220.312 70.3518 218.385 69.5806 217.504C67.3769 214.99 67.0096 210.549 67.3402 209.191C67.8911 206.952 77.4403 197.373 80.4152 196.657C80.8927 196.547 81.3701 196.4 81.8292 196.253C83.7758 195.684 85.7958 195.079 87.8342 196.088C89.8175 197.061 90.35 196.29 90.552 195.996C90.7908 195.666 90.754 195.336 89.9093 194.345C89.7807 194.179 89.4318 193.721 88.9544 193.078C84.6389 187.224 83.078 185.701 82.527 185.462C81.3518 185.059 79.5337 184.416 78.689 184.508C76.669 184.765 75.4202 182.875 74.8877 182.086C73.437 179.883 70.4437 176.452 69.2684 176.268C68.4971 176.158 67.5238 176.14 66.6056 176.103C64.9345 176.066 63.3369 176.011 62.1432 175.534C60.6925 174.947 57.3319 173.295 56.1015 172.231C55.8995 172.047 55.6792 171.845 55.4588 171.643C55.0181 171.221 53.953 170.23 53.549 170.212C53.3653 170.249 53.2 170.322 52.8695 170.524C52.2818 170.854 51.4738 171.313 49.9864 171.423C46.8094 171.588 45.4138 167.312 45.2301 165.202C45.0832 163.66 43.0816 156.742 42.2001 155.42C41.7777 154.778 41.3921 153.714 40.933 152.374C39.7026 148.869 38.8028 147.089 38.2335 147.052C36.9664 147.015 33.4589 147.364 30.3555 147.658C25.5074 148.116 24.2036 148.227 23.6343 148.098C22.4223 147.878 21.0634 147.456 19.5575 145.804C19.4106 145.657 19.3004 145.511 19.227 145.419L18.6577 144.648L19.0801 143.712C35.7544 118.295 61.1699 100.641 90.6806 93.9788L91.2866 93.832L91.8008 94.1991C96.1897 97.4106 96.6488 97.8511 96.8875 98.3649C97.0712 98.7503 97.1446 99.2458 97.2732 99.9799C97.4385 100.971 97.6955 102.439 98.1546 103.173C98.8157 104.256 101.093 105.54 102.929 105.118L103.388 105.008C104.215 104.825 105.353 104.586 106.29 104.017C108.402 102.733 112.35 101.576 114.113 103.118C116.316 105.063 115.527 107.486 115.068 108.936C114.958 109.284 114.792 109.816 114.792 109.982C114.847 110.055 115.215 110.514 115.968 110.771C116.61 111.009 117.694 111.138 119.144 110.404C120.834 109.559 122.505 109.835 123.625 110.018C123.882 110.055 124.213 110.11 124.415 110.128C124.984 109.559 125.076 109.229 125.351 108.238L125.498 107.706C126.104 105.706 127.867 105.375 129.024 105.155C129.961 104.972 130.365 104.88 130.548 104.513C131.448 102.659 132.605 100.659 134.956 100.622C135.8 100.622 136.406 100.934 136.957 101.191C137.674 101.54 138.408 101.907 140.042 101.76C140.74 101.705 141.328 101.595 141.842 101.521C143.697 101.209 145.313 100.953 146.911 103.522C147.388 104.311 147.865 105.357 148.343 106.476C149.133 108.256 150.436 111.248 151.538 111.56C151.85 111.652 152.291 111.67 152.769 111.707C154.33 111.798 156.956 111.945 157.947 115.304C158.718 117.891 157.378 120.093 154.385 121.194C153.503 121.525 152.585 121.506 151.777 121.488C150.987 121.47 150.29 121.451 149.886 121.745C149.537 122.002 149.096 122.534 148.637 123.085C147.627 124.296 146.378 125.819 144.505 126.498C143.091 127.03 140.52 127.251 138.261 127.434C137.178 127.526 135.745 127.636 135.194 127.764C134.313 128.682 131.871 130.792 130.53 131.49C130.236 131.637 129.924 132.187 129.612 132.719C129.134 133.527 128.547 134.536 127.537 135.179C126.931 135.564 126.178 135.858 125.37 136.169C124.58 136.481 123.129 137.05 122.909 137.436C122.891 137.528 123.148 138.005 123.313 138.298C123.827 139.234 124.599 140.629 124.213 142.666C123.956 143.969 123.331 145.474 122.744 146.924C122.23 148.153 121.477 150.025 121.55 150.557C121.642 150.943 121.789 151.328 121.936 151.695C122.413 152.888 123.056 154.54 121.954 156.136C121.018 157.513 118.649 158.173 116.904 158.32C115.692 158.412 113.47 158.393 112.13 157.017C110.954 155.806 110.422 154.283 110.018 152.925C109.779 152.154 109.54 151.401 109.228 150.979L108.879 150.502C108.145 149.475 107.961 149.181 106.363 149.456C104.766 149.731 102.58 151.695 100.983 153.108C100.285 153.732 99.6421 154.301 99.1279 154.705C97.9526 155.567 97.3834 156.595 97.4752 157.696C97.6221 159.238 96.4101 160.119 95.4368 160.853C94.9961 161.183 94.537 161.513 94.1697 161.899C93.4535 162.706 92.5904 164.009 92.6455 165.661C92.6639 167.037 91.8008 168.377 90.956 169.661C90.6438 170.12 90.2215 170.799 90.0746 171.166C90.4969 171.662 91.7824 172.634 92.6822 173.295C93.8759 174.176 95.1063 175.094 95.8592 175.938C96.4101 176.543 97.2548 177.608 98.2465 178.837C99.6237 180.562 102.176 183.756 102.911 184.178C103.701 184.49 110.495 185.444 114.352 185.205C114.737 185.169 115.123 185.114 115.435 185.059C120.393 184.141 123.221 188.013 124.911 191.005C127.169 195.024 129.079 197.629 131.577 198.107C134.331 198.62 140.355 197.886 142.632 197.611L143.146 197.556C146.8 197.134 147.884 199.024 148.673 200.419C148.949 200.896 149.206 201.355 149.555 201.722C149.904 202.089 150.62 202.529 151.391 203.007C153.577 204.346 156.864 206.347 156.258 210.219C155.817 213.045 153.301 214.55 151.079 215.871C149.463 216.844 147.939 217.761 147.296 218.991C145.717 222.092 144.689 227.102 144.707 229.818C144.762 232.7 143.77 234.7 141.695 235.93C141.457 236.076 141.181 236.205 140.887 236.352C139.565 237.031 137.931 237.893 137.453 239.38C136.351 242.701 134.074 243.087 131.632 243.197C130.457 243.234 129.024 245.491 128.308 248.445C127.592 251.235 126.325 254.208 125.223 255.658C124.911 256.08 124.397 256.63 123.717 257.328C122.744 258.355 120.154 261.09 120.136 262.026C120.136 262.136 120.136 262.54 120.154 263.09C120.228 266.137 120.301 269.477 120.136 270.614L119.879 272.358ZM93.6004 255.933C97.3834 257.786 100.12 260.117 102.782 262.393C104.307 263.696 105.757 264.925 107.318 265.99C108.622 266.871 112.387 267.696 115.123 268.302C115.968 268.486 116.757 268.669 117.455 268.834C117.473 267.091 117.4 264.522 117.382 263.347C117.363 262.686 117.363 262.246 117.363 262.136C117.4 260.319 119.273 258.209 121.697 255.639C122.266 255.034 122.744 254.538 123.001 254.19C123.882 253.033 125.003 250.354 125.609 247.95C126.031 246.28 127.684 240.756 131.503 240.609C133.799 240.499 134.331 240.187 134.827 238.682C135.635 236.131 138.022 234.884 139.602 234.058C139.859 233.929 140.079 233.801 140.3 233.691C141.163 233.177 141.989 232.369 141.934 230.002C141.897 226.882 142.981 221.505 144.817 217.871C145.809 215.926 147.755 214.77 149.628 213.632C151.502 212.513 153.264 211.448 153.503 209.907C153.797 207.998 152.273 206.915 149.922 205.466C148.986 204.897 148.104 204.346 147.498 203.704C146.947 203.098 146.58 202.474 146.249 201.905C145.533 200.658 145.276 200.199 143.44 200.419L142.944 200.474C140.336 200.786 134.221 201.52 131.044 200.933C127.096 200.162 124.654 196.327 122.487 192.473C119.879 187.83 117.767 187.536 115.894 187.885C115.49 187.958 115.031 188.013 114.535 188.068C110.624 188.325 103.223 187.408 101.754 186.802C100.67 186.325 99.1279 184.49 96.0795 180.672C95.1613 179.516 94.335 178.47 93.8208 177.92C93.2331 177.277 92.1129 176.433 91.0295 175.626C88.7891 173.956 87.522 172.946 87.3016 171.79C87.0996 170.671 87.8158 169.57 88.6422 168.303C89.138 167.533 89.8909 166.376 89.8726 165.863C89.7991 163.844 90.5888 161.88 92.1129 160.174C92.6455 159.586 93.2515 159.146 93.7657 158.76C94.1146 158.504 94.6288 158.118 94.7206 157.935C94.5921 156.87 94.7941 154.558 97.4385 152.613C97.8976 152.264 98.4668 151.75 99.1096 151.181C101.056 149.438 103.462 147.272 105.849 146.869C109.136 146.3 110.22 147.805 111.083 149.034L111.395 149.475C111.964 150.245 112.295 151.236 112.607 152.246C112.938 153.328 113.305 154.448 114.058 155.2C114.333 155.476 115.123 155.788 116.463 155.696C118.134 155.586 119.438 154.98 119.659 154.686C119.897 154.338 119.787 153.916 119.346 152.815C119.144 152.319 118.942 151.824 118.832 151.255C118.538 150.043 119.144 148.447 120.173 145.969C120.724 144.63 121.293 143.253 121.495 142.226C121.697 141.198 121.33 140.519 120.889 139.73C120.448 138.941 119.916 137.968 120.246 136.757C120.705 135.105 122.634 134.353 124.341 133.692C124.984 133.435 125.664 133.178 126.049 132.94C126.49 132.664 126.839 132.059 127.206 131.435C127.684 130.609 128.235 129.673 129.226 129.159C130.31 128.59 132.844 126.37 133.266 125.856C133.854 125.158 134.79 125.048 137.986 124.791C139.969 124.626 142.43 124.424 143.495 124.021C144.689 123.58 145.625 122.442 146.47 121.433C147.039 120.754 147.572 120.093 148.196 119.635C149.371 118.772 150.694 118.79 151.777 118.827C152.401 118.845 152.971 118.845 153.375 118.699C155.744 117.818 155.395 116.625 155.266 116.166C154.844 114.716 154.164 114.625 152.567 114.533C151.961 114.496 151.336 114.459 150.73 114.276C148.398 113.597 147.002 110.44 145.79 107.651C145.331 106.623 144.909 105.651 144.523 105.045C143.899 104.054 143.899 104.054 142.228 104.311C141.677 104.403 141.016 104.513 140.245 104.568C137.857 104.788 136.553 104.146 135.709 103.724C135.323 103.54 135.103 103.43 134.937 103.43C134.533 103.43 134.038 103.632 132.991 105.779C132.164 107.412 130.567 107.706 129.502 107.908C128.345 108.128 128.198 108.22 128.106 108.532L127.959 109.046C127.61 110.257 127.371 111.119 126.123 112.312C125.278 113.12 124.139 112.936 123.148 112.789C122.193 112.643 121.22 112.477 120.338 112.936C118.024 114.092 116.151 113.835 114.994 113.432C113.709 112.973 112.662 112.074 112.203 111.028C111.799 110.073 112.111 109.101 112.423 108.165C112.901 106.66 113.029 105.944 112.276 105.265C111.836 105.027 109.522 105.357 107.704 106.458C106.382 107.266 104.931 107.577 103.958 107.779L103.535 107.871C100.487 108.55 97.0344 106.715 95.8041 104.678C95.0695 103.503 94.7757 101.778 94.5553 100.512C94.5002 100.182 94.4635 99.9065 94.4084 99.6862C93.8391 99.154 91.8926 97.741 90.6806 96.8417C62.4738 103.357 38.1234 120.203 21.9632 144.373C22.863 145.217 23.5609 145.327 24.1485 145.437C24.6443 145.455 27.6743 145.18 30.08 144.96C33.4406 144.648 36.893 144.299 38.307 144.336C41.0432 144.409 42.3654 148.172 43.5407 151.512C43.8896 152.484 44.2752 153.585 44.514 153.952C45.7443 155.824 47.8194 163.202 47.9847 165C48.1316 166.67 49.1416 168.725 49.7844 168.725H49.8027C50.6842 168.652 51.0515 168.45 51.5289 168.175C51.9329 167.936 52.4471 167.661 53.1817 167.533C54.8161 167.294 56.2301 168.615 57.3686 169.68C57.5706 169.863 57.7543 170.047 57.9195 170.194C58.6908 170.854 61.5556 172.359 63.19 173.02C63.9245 173.313 65.3385 173.35 66.6974 173.387C67.6891 173.405 68.7358 173.442 69.6724 173.57C72.8309 174.029 77.0179 180.324 77.2015 180.581C77.9912 181.774 78.3401 181.792 78.3768 181.792C79.7541 181.627 81.4252 182.177 83.482 182.893C85.0796 183.48 87.6138 186.6 91.1764 191.463C91.5804 192.032 91.8742 192.436 92.0028 192.564C92.5904 193.262 94.4084 195.354 92.8108 197.593C92.1864 198.492 90.3317 200.382 86.6222 198.565C85.6122 198.052 84.4369 198.364 82.6372 198.896C82.1414 199.043 81.6272 199.189 81.0947 199.336C79.2216 199.795 70.6457 208.255 70.0396 209.888C69.9295 210.457 70.1315 213.926 71.674 215.688C73.4186 217.67 72.684 220.532 72.1882 222.423C72.078 222.881 71.9128 223.505 71.9128 223.707C71.9495 223.983 72.5004 224.808 72.8309 225.286C73.5471 226.332 74.1531 227.249 74.098 228.222C73.9879 229.782 73.2166 230.864 72.6106 231.727C72.2617 232.223 71.9495 232.663 71.8209 233.103C71.6557 233.636 71.8026 234.957 72.482 235.452C73.3084 236.058 74.3368 235.875 75.2366 235.654C75.6957 235.544 75.8793 235.361 76.2099 234.975C76.669 234.461 77.3301 233.672 78.5788 233.636C79.8092 233.672 80.8927 234.443 82.0129 235.251C82.4719 235.581 83.1514 236.076 83.3901 236.15C83.5921 236.131 84.1798 236.095 84.8776 236.04C86.512 235.93 88.7524 235.764 90.3868 235.911C93.3433 236.168 94.2431 239.453 94.8859 241.839L95.1246 242.701C95.7673 244.94 96.9794 249.124 94.5737 253.933C94.1146 254.832 93.8024 255.456 93.6004 255.933Z" fill="black"/>
<path d="M229.107 184.545C227.876 183.774 226.72 183.022 226.132 182.655C224.626 181.7 221.045 180.82 219.447 179.59C217.813 178.342 217.152 174.947 216.564 171.827C215.977 168.671 213.479 167.643 212.469 167.386C211.478 167.093 202.791 168.065 201.194 168.285C199.578 168.506 197.227 177.186 192.728 175.589C190.708 174.874 190.745 173.828 190.212 172.047C189.661 170.231 184.189 168.249 181.159 165.551C178.111 162.853 176.898 159.954 176.77 158.008C176.494 154.338 180.994 153.145 181.526 151.787C182.077 150.392 180.865 143.602 180.443 140.189C180.039 136.794 181.287 135.895 182.757 135.216C184.262 134.518 185.603 135.619 187.403 136.005C189.239 136.39 191.424 132.408 192.526 130.976C193.61 129.545 192.251 126.792 193.114 125.251C193.389 124.737 194.014 124.039 194.748 123.269C211.863 139.143 224.24 160.339 229.107 184.545Z" fill="black"/>
<path d="M231.072 187.408L228.372 185.719C227.528 185.187 226.738 184.673 226.114 184.288L225.379 183.829C224.847 183.499 223.818 183.095 222.808 182.71C221.247 182.123 219.65 181.499 218.584 180.673C216.509 179.095 215.812 175.369 215.206 172.084C214.746 169.588 212.726 168.873 212.12 168.726C211.129 168.597 203.949 169.313 201.598 169.625C201.304 169.937 200.79 170.8 200.404 171.46C198.862 174.029 196.309 178.324 192.269 176.892C189.882 176.03 189.478 174.562 189.092 173.149C189.037 172.928 188.964 172.69 188.89 172.433C188.651 171.901 186.631 170.726 185.291 169.955C183.601 168.983 181.692 167.863 180.241 166.579C177.413 164.064 175.595 160.908 175.393 158.1C175.154 154.889 177.67 153.108 179.194 152.062C179.598 151.769 180.167 151.383 180.278 151.218C180.516 150.392 179.855 145.823 179.488 143.382C179.323 142.244 179.176 141.198 179.066 140.354C178.57 136.243 180.259 134.848 182.169 133.968C183.712 133.252 185.071 133.766 186.264 134.206C186.705 134.371 187.182 134.555 187.697 134.665C188.376 134.592 190.065 132.114 190.598 131.307C190.91 130.848 191.186 130.444 191.424 130.132C191.663 129.82 191.571 128.884 191.498 128.132C191.388 126.976 191.277 125.673 191.902 124.571C192.214 124.021 192.783 123.324 193.738 122.314L194.675 121.323L195.666 122.259C213.626 138.978 225.636 160.449 230.429 184.343L231.072 187.408ZM211.661 165.955C212.212 165.955 212.616 165.991 212.855 166.046C214.875 166.579 217.299 168.304 217.905 171.552C218.382 174.066 219.025 177.535 220.256 178.471C221.009 179.058 222.478 179.608 223.781 180.122C224.957 180.581 226.077 181.003 226.848 181.48L227.05 181.609C222.074 160.027 210.982 140.593 194.803 125.159C194.51 125.507 194.363 125.728 194.289 125.856C194.087 126.223 194.161 127.067 194.234 127.82C194.344 129.104 194.491 130.573 193.61 131.747C193.389 132.022 193.151 132.389 192.875 132.793C191.369 135.014 189.478 137.803 187.109 137.289C186.429 137.142 185.823 136.922 185.309 136.72C184.263 136.335 183.803 136.188 183.344 136.408C182.316 136.886 181.49 137.271 181.82 139.969C181.912 140.794 182.077 141.822 182.224 142.942C183.032 148.521 183.289 151.053 182.812 152.246C182.481 153.09 181.692 153.641 180.773 154.283C179.157 155.402 178.037 156.32 178.147 157.862C178.258 159.477 179.359 162.064 182.077 164.487C183.308 165.588 185.107 166.634 186.687 167.533C189.147 168.946 191.075 170.065 191.535 171.607C191.608 171.882 191.681 172.139 191.755 172.378C192.104 173.644 192.159 173.883 193.206 174.25C194.95 174.874 196.438 172.69 198.054 169.992C199.082 168.285 199.817 167.037 201.029 166.872C201.084 166.891 208.521 165.955 211.661 165.955Z" fill="black"/>
<path d="M121.293 42.3371C115.82 42.7225 106.804 42.8326 103.296 32.4822C100.174 23.288 104.527 17.2319 105.28 12.0567C105.941 7.48716 105.188 4.58759 104.178 2.69736C103.811 2.01834 104.453 1.26592 105.243 1.37603C109.742 2.0734 120.375 4.25726 127.298 10.2032C136.278 17.911 139.62 29.546 131.154 38.2447C129.134 40.3368 124.176 42.1353 121.293 42.3371Z" fill="white"/>
<path d="M118.079 43.8607C112.827 43.8607 105.225 42.4843 101.993 32.9231C99.6054 25.876 101.332 20.5356 102.727 16.2413C103.241 14.6814 103.719 13.2133 103.921 11.8736C104.435 8.36842 104.105 5.50555 102.966 3.35839C102.562 2.60597 102.617 1.70674 103.113 1.00937C103.645 0.256949 104.527 -0.110086 105.445 0.0367279C109.871 0.715742 120.963 2.97301 128.198 9.19425C133.78 13.9841 137.141 20.1502 137.398 26.0778C137.618 30.9227 135.8 35.4739 132.146 39.2177C129.906 41.5117 124.635 43.4753 121.403 43.7139C120.503 43.7873 119.365 43.8607 118.079 43.8607ZM105.776 2.88125C106.896 5.41379 107.171 8.57029 106.639 12.2773C106.4 13.8372 105.886 15.4338 105.353 17.1038C104.013 21.2146 102.507 25.8576 104.6 32.0605C107.557 40.7592 114.664 41.4566 121.201 40.9795C123.809 40.7959 128.455 39.0709 130.163 37.3091C133.321 34.0609 134.827 30.3355 134.644 26.2063C134.405 21.0311 131.412 15.5807 126.398 11.2863C120.063 5.83588 110.367 3.65202 105.776 2.88125Z" fill="black"/>
<path d="M112.809 42.3194C118.282 42.7048 127.298 42.8149 130.806 32.4645C133.927 23.2703 129.575 17.2142 128.822 12.039C128.161 7.56122 128.877 4.69835 129.869 2.80812C130.255 2.07405 129.575 1.24822 128.712 1.39504C124.121 2.11076 113.654 4.33132 106.804 10.2039C97.8242 17.9116 94.482 29.5466 102.948 38.2453C104.986 40.3007 109.944 42.1176 112.809 42.3194Z" fill="white"/>
<path d="M116.041 43.8425C114.756 43.8425 113.617 43.7691 112.717 43.6957C109.485 43.4571 104.215 41.4935 101.975 39.1995C98.3201 35.4374 96.5021 30.9045 96.7225 26.0597C96.9796 20.132 100.34 13.9659 105.923 9.17605C113.103 3.00987 124.103 0.734252 128.51 0.0552373C129.447 -0.0915766 130.383 0.29381 130.916 1.04623C131.43 1.76195 131.504 2.69789 131.1 3.46866C129.998 5.59746 129.704 8.42363 130.2 11.8738C130.402 13.2134 130.879 14.6816 131.393 16.2598C132.789 20.5541 134.534 25.8945 132.128 32.9416C128.878 42.4661 121.275 43.8425 116.041 43.8425ZM112.919 40.9429C119.475 41.4017 126.564 40.7227 129.52 32.024C131.614 25.8394 130.108 21.1781 128.767 17.0857C128.216 15.3973 127.702 13.819 127.482 12.2591C126.949 8.57044 127.225 5.41395 128.345 2.86305C123.846 3.61547 114.076 5.81768 107.722 11.2498C102.709 15.5625 99.7158 20.9946 99.4771 26.1698C99.2934 30.2989 100.799 34.0243 103.958 37.2726C105.666 39.0343 110.312 40.7594 112.919 40.9429Z" fill="black"/>
<path d="M114.627 55.1479C108.016 55.625 97.1265 55.7535 92.8845 43.2376C89.1199 32.1164 94.372 24.8124 95.2902 18.5729C96.0982 13.049 95.18 9.56215 93.9496 7.26818C93.5089 6.46071 94.2802 5.52477 95.2351 5.67158C100.671 6.51576 113.525 9.15841 121.881 16.3523C132.716 25.675 136.756 39.7141 126.545 50.2113C124.085 52.7254 118.098 54.9093 114.627 55.1479Z" fill="white"/>
<path d="M110.752 56.7072C104.49 56.7072 95.4186 55.0739 91.5806 43.6958C88.7158 35.2724 90.8093 28.8676 92.4804 23.7291C93.1048 21.8205 93.6924 20.0221 93.9311 18.3888C94.5555 14.0944 94.1515 10.5709 92.7375 7.92826C92.2967 7.12079 92.3702 6.14814 92.9028 5.39572C93.472 4.58825 94.4453 4.16616 95.4553 4.33132C100.781 5.15715 114.113 7.85486 122.799 15.324C129.483 21.0681 133.505 28.4272 133.817 35.5109C134.074 41.2917 131.907 46.7055 127.555 51.1833C124.911 53.9177 118.612 56.2484 114.774 56.5237C113.635 56.5971 112.277 56.7072 110.752 56.7072ZM95.3819 7.10243C96.8877 10.2039 97.3101 14.1312 96.6306 18.7741C96.3551 20.646 95.7308 22.5362 95.088 24.5549C93.4537 29.565 91.6173 35.2173 94.1882 42.7966C97.8243 53.4956 106.51 54.3398 114.535 53.7709C117.749 53.5323 123.387 51.4769 125.554 49.2564C129.373 45.3291 131.265 40.6311 131.044 35.621C130.769 29.2897 127.096 22.6464 120.981 17.3978C113.011 10.5893 100.707 7.96497 95.3819 7.10243Z" fill="black"/>
<path d="M118.337 55.1277C124.948 55.6048 135.837 55.7333 140.079 43.2174C143.844 32.0963 138.592 24.7923 137.674 18.5527C136.884 13.1573 137.747 9.68879 138.941 7.39482C139.4 6.51394 138.592 5.52294 137.545 5.68811C132.018 6.55064 119.365 9.22999 111.101 16.3321C100.267 25.6548 96.2267 39.6939 106.437 50.1911C108.879 52.6869 114.866 54.8708 118.337 55.1277Z" fill="white"/>
<path d="M122.193 56.6697C120.669 56.6697 119.31 56.5779 118.227 56.5045C114.37 56.2292 108.09 53.8802 105.445 51.1641C101.093 46.6863 98.9262 41.2725 99.1833 35.4917C99.4955 28.408 103.517 21.0489 110.202 15.3048C118.814 7.89073 132.055 5.17467 137.343 4.34884C138.372 4.18368 139.382 4.60577 139.988 5.4316C140.539 6.20237 140.612 7.21172 140.19 8.0559C138.812 10.6618 138.427 14.1303 139.051 18.3512C139.29 19.9845 139.878 21.783 140.502 23.6916C142.173 28.8301 144.248 35.2348 141.402 43.6583C137.527 55.0364 128.455 56.6697 122.193 56.6697ZM118.429 53.7517C126.454 54.3206 135.158 53.4765 138.776 42.7774C141.347 35.2165 139.492 29.5458 137.876 24.5358C137.215 22.5171 136.609 20.6085 136.333 18.755C135.654 14.0753 136.076 10.1296 137.6 7.00985C132.495 7.87238 120.008 10.4783 112.001 17.3602C105.886 22.6088 102.232 29.2522 101.938 35.5835C101.718 40.5752 103.609 45.2916 107.429 49.2188C109.596 51.4578 115.215 53.5132 118.429 53.7517Z" fill="black"/>
<path d="M9.9165 250.556C16.1786 247.271 29.8412 241.802 47.2318 243.399C71.7842 245.656 91.8925 250.189 101.57 259.64C111.248 269.091 130.934 270.89 134.001 271.294C137.068 271.716 157.929 272.266 168.323 275.716C177.854 278.891 181.545 284.158 179.965 287.718C177.376 293.554 153.319 295.151 141.144 300.675C136.37 302.84 125.462 302.198 121.495 300.62C117.528 299.041 106.455 297.335 101.662 297.592C96.8691 297.849 87.173 298.326 75.2366 289.939" fill="black"/>
<path d="M132.054 303.483C127.702 303.483 123.331 302.859 120.999 301.941C117.143 300.418 106.345 298.766 101.754 299.005C96.9059 299.262 86.8058 299.776 74.4653 291.114C73.841 290.673 73.6941 289.811 74.1348 289.205C74.5755 288.581 75.4202 288.434 76.0446 288.875C87.5955 297.004 97.0528 296.509 101.589 296.27C106.565 295.995 117.804 297.739 121.991 299.39C125.664 300.84 136.223 301.427 140.557 299.464C145.827 297.078 153.062 295.445 160.059 293.866C168.213 292.031 177.468 289.939 178.68 287.205C179.029 286.397 178.992 285.48 178.533 284.452C177.284 281.626 173.299 278.873 167.845 277.056C159.894 274.413 145.203 273.478 138.151 273.019C136.021 272.89 134.497 272.78 133.78 272.688L132.954 272.578C117.675 270.725 106.786 266.706 100.579 260.65C92.2599 252.52 74.7592 247.345 47.0849 244.794C29.2536 243.142 15.5726 249.143 10.5226 251.786C9.8431 252.153 9.01673 251.878 8.66781 251.199C8.3189 250.52 8.57599 249.694 9.25546 249.345C14.5259 246.574 28.7762 240.334 47.342 242.041C76.063 244.684 93.6004 249.969 102.507 258.668C108.273 264.302 118.63 268.064 133.303 269.844L134.166 269.954C134.79 270.046 136.351 270.138 138.353 270.266C146.084 270.761 160.463 271.679 168.745 274.432C175.007 276.506 179.488 279.754 181.067 283.332C181.839 285.057 181.875 286.783 181.214 288.306C179.525 292.123 172.308 293.921 160.665 296.546C153.797 298.087 146.709 299.684 141.695 301.959C139.345 303.042 135.709 303.483 132.054 303.483Z" fill="white"/>
<path d="M116.574 323.963C78.9829 323.963 43.1734 305.648 21.2654 274.616C20.2003 273.092 19.0801 271.459 17.8681 269.569C8.15365 254.135 2.14869 236.334 0.477583 218.111C-1.92808 191.666 4.49926 165.955 19.0434 143.786C35.7177 118.369 61.1332 100.714 90.6439 94.0528C95.6939 92.9149 100.817 92.1075 105.904 91.6487C169.865 85.8495 226.665 133.087 232.486 197.006C235.314 227.984 225.893 258.191 205.969 282.085C186.044 305.979 158.021 320.678 127.023 323.505C123.552 323.798 120.063 323.963 116.574 323.963ZM116.684 93.8876C113.195 93.8876 109.687 94.0528 106.18 94.3647C101.221 94.8235 96.2081 95.6127 91.2866 96.7138C62.4738 103.229 37.6459 120.461 21.3572 145.272C7.14365 166.928 0.881587 192.014 3.23215 217.835C4.84817 235.636 10.7246 253.016 20.2003 268.082C21.3756 269.917 22.4591 271.532 23.5242 273.019C46.9013 306.125 86.4753 324.422 126.802 320.752C157.047 317.999 184.428 303.648 203.875 280.323C223.322 256.998 232.523 227.488 229.768 197.263C227.014 167.038 212.635 139.675 189.294 120.259C168.653 103.063 143.201 93.8876 116.684 93.8876Z" fill="white"/>
</svg>
