<svg width="240" height="334" viewBox="0 0 240 334" fill="none" xmlns="http://www.w3.org/2000/svg">
<path d="M117.824 94.1866C117.978 95.1671 116.967 95.9943 115.833 95.8718C115.19 95.7799 114.393 95.6879 113.413 95.5654C110.594 95.1977 106.122 95.3815 97.6355 94.156C85.7488 92.4402 80.602 87.5991 75.4246 80.2763C71.1356 74.2097 67.6125 66.8563 65.2535 62.7506C64.7021 61.7701 65.4986 60.6365 66.7853 60.6058C68.409 60.5752 70.3697 60.5446 71.5951 60.5752C77.0789 60.759 88.5979 62.7506 97.1147 66.5805C106.704 70.9007 112.463 76.4158 115.649 84.1062C116.66 86.5574 117.457 91.4597 117.824 94.1866Z" fill="#6AA62F"/>
<path d="M116.109 97.312C115.956 97.312 115.802 97.312 115.68 97.2814L113.26 96.975C112.341 96.8525 111.207 96.7912 109.737 96.7299C106.918 96.5767 103.058 96.3929 97.4517 95.5656C85.4119 93.8192 79.8362 88.9475 74.2911 81.1038C71.1663 76.6917 68.4397 71.6362 66.2952 67.5612C65.468 65.9986 64.7022 64.5892 64.0588 63.4555C63.5686 62.5976 63.5686 61.5865 64.0282 60.7593C64.549 59.8094 65.5906 59.2273 66.7548 59.1967C68.2559 59.166 70.3085 59.1354 71.6258 59.166C77.1709 59.3498 88.935 61.372 97.6662 65.2939C107.47 69.706 113.597 75.5274 116.936 83.5856C117.978 86.0674 118.744 90.6327 119.234 94.0336C119.356 94.8915 119.081 95.7494 118.437 96.3929C117.824 96.9444 116.997 97.312 116.109 97.312ZM70.1553 61.9542C69.0524 61.9542 67.7964 61.9848 66.816 62.0155C66.6016 62.0155 66.5097 62.1074 66.479 62.138C67.153 63.2104 67.9189 64.6505 68.7767 66.2437C70.9212 70.2268 73.5559 75.1904 76.5888 79.4799C81.8275 86.864 86.7599 91.1535 97.85 92.7774C103.334 93.574 107.102 93.7579 109.89 93.9111C111.391 94.003 112.586 94.0643 113.627 94.1868L116.048 94.4932C116.262 94.5239 116.385 94.4319 116.446 94.4013C115.802 89.928 115.037 86.3738 114.332 84.6886C111.268 77.2432 105.754 72.0652 96.5326 67.8982C88.1385 64.1296 76.8952 62.1993 71.5646 62.0155C71.1357 61.9542 70.6761 61.9542 70.1553 61.9542Z" fill="#024755"/>
<path d="M122.175 94.247C122.052 95.1968 123.002 96.0241 124.105 95.8709C124.748 95.7789 125.545 95.687 126.587 95.5645C129.405 95.1968 133.878 95.3806 142.364 94.1551C154.251 92.4392 159.397 87.5982 164.575 80.2754C169.446 73.4122 173.337 64.8638 175.634 61.279C175.818 61.0032 175.573 60.6356 175.205 60.6356C173.643 60.5743 170.242 60.4824 168.435 60.5436C162.951 60.7275 151.432 62.719 142.915 66.549C133.326 70.8691 127.567 76.3842 124.381 84.0747C123.37 86.5871 122.573 91.5201 122.175 94.247Z" fill="#6AA62F"/>
<path d="M123.86 97.3108C123.002 97.3108 122.144 96.9737 121.562 96.3916C120.95 95.7788 120.643 94.9209 120.766 94.063C121.256 90.662 122.022 86.0661 123.064 83.5843C126.403 75.5262 132.499 69.7047 142.333 65.2926C151.065 61.3708 162.829 59.3486 168.374 59.1647C170.181 59.1035 173.459 59.1954 175.236 59.2567C175.941 59.2873 176.584 59.6856 176.89 60.2678C177.197 60.8499 177.166 61.524 176.799 62.0755C175.971 63.3317 174.93 65.2926 173.704 67.5906C171.529 71.635 168.833 76.6905 165.708 81.1025C160.163 88.9462 154.588 93.8179 142.548 95.5643C136.942 96.361 133.081 96.5754 130.263 96.7286C128.823 96.7899 127.659 96.8512 126.74 96.9737L124.258 97.2801C124.136 97.2801 124.013 97.3108 123.86 97.3108ZM123.584 94.4C123.646 94.4307 123.738 94.492 123.921 94.4613L126.403 94.1549C127.444 94.0324 128.609 93.9711 130.14 93.8792C132.898 93.726 136.696 93.5421 142.18 92.7455C153.27 91.1523 158.203 86.8321 163.441 79.448C166.474 75.1585 169.14 70.2256 171.254 66.2424C172.111 64.6492 172.877 63.2091 173.551 62.0142C171.836 61.9836 169.752 61.9223 168.496 61.9836C163.166 62.1674 151.892 64.0977 143.528 67.8663C134.276 72.0333 128.792 77.2113 125.729 84.6567C124.994 86.3419 124.228 89.896 123.584 94.4Z" fill="#024755"/>
<path d="M122.696 51.1982H117.273V100.62H122.696V51.1982Z" fill="#32B4A1"/>
<path d="M124.105 102.029H115.864V49.7891H124.105V102.029ZM118.683 99.1798H121.256V52.6079H118.683V99.1798Z" fill="#004C69"/>
<path d="M238.07 203.201C244.013 268.432 195.946 326.126 130.722 332.07C87.0051 336.053 46.6579 315.739 23.0685 282.281C21.8737 280.596 20.7401 278.88 19.6066 277.134C9.95638 261.814 3.67606 244.012 1.92983 224.71C-0.612937 196.981 6.64772 170.6 20.832 148.969C37.2528 123.875 63.0174 105.247 93.7144 98.3221C98.7692 97.1884 103.947 96.3611 109.247 95.8709C174.439 89.9269 232.126 138 238.07 203.201Z" fill="#32B4A1"/>
<path d="M120.092 333.97C81.3683 333.97 44.4829 315.096 21.935 283.109C20.8322 281.546 19.668 279.83 18.4426 277.9C8.4247 261.967 2.20565 243.614 0.520688 224.832C-1.9608 197.563 4.65651 171.091 19.6374 148.203C36.7933 122.007 62.9869 103.807 93.4081 96.9436C98.6162 95.7793 103.916 94.9214 109.124 94.4618C141.047 91.5817 172.172 101.264 196.804 121.761C221.435 142.29 236.599 171.152 239.51 203.078C245.514 268.984 196.773 327.474 130.876 333.48C127.261 333.786 123.646 333.97 120.092 333.97ZM120.184 96.7904C116.599 96.7904 112.984 96.9436 109.369 97.2806C104.284 97.7402 99.1063 98.5674 94.0208 99.7011C64.3348 106.411 38.754 124.182 21.9963 149.766C7.38308 172.102 0.918952 197.962 3.33917 224.587C5.02413 242.94 11.0594 260.864 20.8322 276.368C22.0269 278.237 23.1605 279.922 24.2327 281.454C48.3124 315.586 89.0885 334.429 130.6 330.661C194.935 324.809 242.512 267.697 236.661 203.354C233.811 172.194 219.014 144.006 194.965 123.967C173.735 106.258 147.511 96.7904 120.184 96.7904Z" fill="#024755"/>
<path d="M229.431 248.7C233.26 250.294 231.882 253.051 231.514 254.307C230.044 259.547 223.579 273.181 216.594 282.526C201.491 302.748 187.521 311.45 178.453 317.149C171.223 321.714 147.572 334.215 114.302 332.407C112.77 332.346 111.238 332.254 109.645 332.101C66.2345 328.271 30.3294 301.523 12.8977 264.786C11.948 262.795 11.0596 260.803 10.2324 258.781C16.6966 255.38 30.3907 249.803 48.4045 251.458C73.7708 253.817 94.3887 258.015 104.376 267.758C114.363 277.501 134.797 279.738 137.983 280.167C141.139 280.596 162.614 280.964 173.337 284.549C174.562 284.977 177.228 286.172 178.269 286.571C183.263 284.181 189.206 280.351 193.74 276.613C198.519 272.66 204.156 267.084 206.852 264.357C210.957 260.251 216.196 253.787 217.544 252.347C222.17 247.291 226.245 247.352 229.431 248.7Z" fill="#024755"/>
<path d="M120.888 334C118.713 334 116.477 333.939 114.21 333.817C112.678 333.755 111.116 333.663 109.523 333.51C67.3066 329.803 29.8085 303.729 11.6109 265.399C10.6612 263.407 9.74214 261.354 8.91498 259.332L8.4248 258.137L9.55832 257.525C16.2675 254.001 30.2068 248.363 48.5269 250.049C78.8563 252.867 96.3799 258.015 105.356 266.747C111.361 272.599 122.88 276.858 137.769 278.727L138.167 278.788C138.841 278.88 140.526 278.972 142.67 279.095C150.574 279.554 165.28 280.382 173.766 283.2C174.593 283.476 175.941 284.058 177.136 284.579C177.534 284.732 177.871 284.886 178.208 285.039C182.987 282.679 188.532 279.095 192.821 275.54C197.845 271.374 203.85 265.368 205.841 263.377C208.752 260.466 212.183 256.421 214.45 253.725C215.369 252.653 216.074 251.795 216.472 251.397C220.73 246.77 225.264 245.391 229.982 247.383C234.608 249.313 233.444 252.959 233.015 254.307L232.893 254.675C231.361 260.16 224.682 274.07 217.758 283.354C202.624 303.606 188.685 312.369 179.464 318.191L179.249 318.344C173.122 322.174 151.8 334 120.888 334ZM12.0398 259.455C12.7138 261.048 13.4184 262.641 14.1843 264.173C31.953 301.584 68.5933 327.045 109.798 330.661C111.361 330.783 112.862 330.906 114.394 330.967C148.062 332.806 171.407 319.906 177.748 315.923L177.963 315.77C187 310.071 200.664 301.492 215.491 281.638C222.231 272.63 228.695 259.179 230.166 253.878C230.197 253.725 230.258 253.572 230.319 253.419C230.809 251.856 231.024 250.876 228.91 249.987C226.643 249.037 223.12 248.363 218.586 253.296C218.218 253.695 217.513 254.522 216.656 255.564C214.358 258.291 210.865 262.396 207.863 265.368C205.872 267.36 199.775 273.457 194.659 277.685C190.033 281.515 183.998 285.406 178.912 287.827L178.361 288.103L177.779 287.888C177.381 287.735 176.768 287.459 176.063 287.183C174.991 286.724 173.643 286.142 172.908 285.897C164.789 283.2 150.329 282.373 142.548 281.913C140.25 281.791 138.596 281.699 137.83 281.576L137.462 281.546C121.716 279.585 109.951 275.173 103.426 268.8C94.94 260.527 77.9372 255.625 48.3125 252.898C31.6773 251.366 18.8409 256.084 12.0398 259.455Z" fill="#024755"/>
<path d="M161.297 119.371C161.91 121.393 160.745 122.864 158.478 123.722C156.947 124.304 154.925 123.446 153.485 124.488C152.106 125.529 150.727 128.287 148.307 129.206C145.856 130.125 138.871 130.064 138.351 130.677C137.83 131.29 135.073 133.741 133.755 134.415C132.438 135.119 132.07 137.325 130.569 138.275C129.037 139.225 125.637 139.869 125.208 141.401C124.779 142.963 127.077 144.127 126.525 146.916C125.974 149.704 123.4 154.055 123.799 155.648C124.136 157.241 125.453 158.834 124.442 160.305C123.431 161.776 118.254 162.817 116.507 161.04C115.496 159.999 115.037 158.65 114.669 157.425C114.363 156.475 114.087 155.617 113.628 155.004C112.586 153.626 112.127 152.369 109.308 152.89C106.49 153.381 103.181 157.119 101.251 158.559C99.2901 159.999 98.8919 161.623 98.9838 162.909C99.1063 164.135 97.2069 164.778 95.9509 166.157C94.6948 167.536 93.9289 169.221 93.9902 171.029C94.0208 172.867 91.0798 175.655 91.2942 176.912C91.5087 178.137 96.0121 180.711 97.6665 182.519C99.3208 184.326 104.039 190.761 105.356 191.343C106.52 191.833 113.811 192.813 117.825 192.538C118.284 192.507 118.713 192.415 119.081 192.384C122.543 191.741 125.055 193.702 127.383 197.808C129.711 201.975 131.948 205.192 135.226 205.835C138.504 206.448 145.366 205.529 147.572 205.284C151.493 204.824 151.31 207.336 152.964 209.144C154.618 210.952 160.163 212.423 159.489 216.712C158.846 220.818 152.259 221.706 150.39 225.352C148.552 228.937 147.541 234.33 147.572 237.179C147.633 240.059 146.592 241.407 145.182 242.235C143.773 243.031 140.985 244.104 140.189 246.586C139.362 249.037 137.922 249.404 135.471 249.527C133.02 249.619 131.396 253.326 130.722 256.022C130.048 258.749 128.823 261.599 127.781 262.947C126.77 264.326 122.328 268.278 122.267 270.331C122.267 270.76 122.512 277.501 122.298 279.002C119.418 278.083 112.065 277.041 109.737 275.448C104.988 272.231 101.312 267.574 94.6029 264.663C94.8173 263.744 95.859 261.783 96.104 261.262C98.3404 256.819 97.2682 253.081 96.5636 250.722C95.8896 248.363 95.2769 244.931 92.9179 244.747C90.5896 244.533 86.7908 244.992 85.6879 244.992C84.5544 244.962 82.2567 242.357 80.9087 242.419C79.5914 242.449 79.4689 244.042 77.9064 244.41C77.1405 244.594 75.3024 245.145 73.74 244.012C72.4533 243.062 72.2388 241.04 72.5452 240.029C73.0354 238.405 74.7203 237.363 74.8429 235.28C74.9041 234.269 72.6984 232.124 72.6065 230.837C72.4839 229.55 74.5671 225.536 72.6984 223.392C70.707 221.155 70.462 217.049 70.707 216.099C71.1666 214.23 80.6636 204.824 83.1145 204.242C85.5654 203.629 87.7711 202.557 89.7931 203.568C91.815 204.548 93.4387 204.395 94.3884 203.016C95.3688 201.638 94.2659 200.32 93.6225 199.585C92.9792 198.849 87.3729 190.73 85.4428 190.025C83.5128 189.351 81.9197 188.83 80.8168 188.953C79.7446 189.075 78.9174 188.095 78.2434 187.084C77.5694 186.073 73.7706 180.803 71.4729 180.466C69.1753 180.159 66.0811 180.466 64.4574 179.792C62.8337 179.148 59.6782 177.524 58.6366 176.636C57.595 175.717 56.1245 174.031 54.899 174.215C53.7042 174.399 53.3979 175.288 51.284 175.441C49.2008 175.594 48.0673 171.948 47.9141 170.324C47.7609 168.7 45.6777 161.285 44.5748 159.57C43.4719 157.885 42.0014 150.378 39.3361 150.286C36.7014 150.225 25.4888 151.603 24.5391 151.389C23.5587 151.205 22.4252 150.929 21.0466 149.428C20.924 149.336 20.8321 149.183 20.7402 149.03C37.161 123.936 62.9256 105.307 93.6225 98.3828C95.9509 100.099 98.2485 101.784 98.4017 102.121C98.7081 102.764 98.8613 105.736 99.811 107.238C100.73 108.77 103.64 110.455 106.244 109.873C107.164 109.658 108.757 109.413 110.135 108.586C112.188 107.36 115.466 106.594 116.507 107.513C118.958 109.689 116.232 112.63 116.814 113.948C117.396 115.265 119.908 116.92 123.247 115.234C125.606 114.04 128.026 115.663 128.854 114.867C129.987 113.764 130.048 113.151 130.508 111.588C131.213 109.199 134.552 110.669 135.624 108.524C136.666 106.349 137.523 105.307 138.902 105.307C140.281 105.307 140.955 106.778 144.233 106.472C147.541 106.165 148.491 105.246 149.962 107.605C151.432 109.995 153.025 115.786 155.537 116.521C157.467 117.012 160.286 115.97 161.297 119.371Z" fill="#B3CC22"/>
<path d="M123.462 280.749L121.869 280.258C120.95 279.983 119.51 279.646 117.947 279.309C114.547 278.573 110.717 277.746 108.91 276.52C107.164 275.356 105.632 274.039 103.977 272.629C101.098 270.178 98.1567 267.666 93.9902 265.858L92.8873 265.368L93.1631 264.203C93.3775 263.315 94.0821 261.905 94.7255 260.619C96.7781 256.513 95.7977 253.173 95.1544 250.967L94.9706 250.048C94.511 248.394 93.8983 246.126 92.8261 246.034C91.3555 245.912 89.1804 246.065 87.5874 246.187C86.7602 246.249 86.1781 246.341 85.7186 246.279C84.7076 246.249 83.8192 245.575 82.7469 244.809C82.2261 244.441 81.307 243.736 80.9394 243.675C80.9088 243.706 80.6943 243.92 80.5718 244.073C80.1429 244.594 79.4689 245.36 78.2435 245.636C77.1406 245.912 74.9042 246.463 72.9129 244.993C71.0441 243.614 70.7684 240.887 71.1973 239.477C71.473 238.589 71.9631 237.854 72.4227 237.21C72.9741 236.444 73.3724 235.862 73.4337 235.035C73.3724 234.943 72.9129 234.269 72.6065 233.809C71.9632 232.829 71.2585 231.818 71.1666 230.837C71.1054 230.194 71.2892 229.489 71.5343 228.57C71.9019 227.13 72.4227 225.138 71.6262 224.219C69.3591 221.645 68.9915 217.049 69.3285 215.671C69.8799 213.342 79.7446 203.476 82.7776 202.771C83.2677 202.649 83.7579 202.496 84.2481 202.373C86.27 201.791 88.3226 201.148 90.4365 202.22C92.4891 203.231 93.0405 202.434 93.2243 202.128C93.4694 201.791 93.4388 201.454 92.5503 200.412C92.4278 200.259 92.0602 199.769 91.57 199.095C87.1278 193.059 85.5348 191.496 84.9527 191.251C83.7579 190.822 81.8585 190.179 81.0007 190.271C78.9175 190.516 77.6308 188.585 77.0793 187.758C75.5782 185.491 72.5146 181.937 71.2892 181.753C70.4926 181.63 69.5123 181.63 68.532 181.6C66.8164 181.538 65.162 181.508 63.9366 181.017C62.4355 180.405 58.9736 178.72 57.7176 177.617C57.5031 177.433 57.2887 177.218 57.0742 177.004C56.6147 176.575 55.5424 175.564 55.1135 175.502C54.9297 175.533 54.7459 175.625 54.4089 175.809C53.7962 176.146 52.969 176.605 51.4372 176.728C48.2205 176.973 46.7193 172.5 46.5355 170.324C46.3823 168.731 44.3298 161.623 43.4107 160.244C42.9818 159.57 42.5835 158.498 42.0934 157.088C40.8373 153.473 39.8876 151.634 39.3055 151.604C38.0494 151.573 34.4038 151.91 31.187 152.216C26.1934 152.707 24.8455 152.799 24.2634 152.676C23.0073 152.462 21.5981 152.002 20.0663 150.317C19.9131 150.164 19.7906 150.01 19.7293 149.919L19.1472 149.122L19.5761 148.141C36.7321 121.945 62.9256 103.745 93.3469 96.8817L93.9902 96.7285L94.511 97.0962C99.0451 100.405 99.5046 100.865 99.7497 101.386C99.9335 101.784 100.025 102.274 100.148 103.071C100.332 104.082 100.577 105.614 101.067 106.349C101.741 107.452 104.1 108.77 105.999 108.371L106.49 108.28C107.347 108.096 108.512 107.851 109.461 107.268C111.636 105.951 115.711 104.756 117.518 106.349C119.785 108.341 118.989 110.853 118.499 112.355C118.376 112.722 118.223 113.243 118.223 113.427C118.284 113.488 118.652 113.978 119.418 114.254C120.092 114.499 121.195 114.622 122.696 113.887C124.442 113.029 126.158 113.304 127.322 113.488C127.598 113.519 127.935 113.58 128.118 113.611C128.7 113.029 128.792 112.692 129.099 111.681L129.252 111.129C129.865 109.076 131.672 108.739 132.898 108.494C133.878 108.31 134.276 108.188 134.46 107.82C135.379 105.92 136.574 103.837 138.994 103.806C139.852 103.806 140.495 104.113 141.047 104.388C141.782 104.756 142.548 105.124 144.233 104.971C144.968 104.909 145.55 104.817 146.071 104.725C148.001 104.419 149.655 104.143 151.31 106.778C151.8 107.605 152.29 108.678 152.78 109.842C153.577 111.681 154.955 114.775 156.058 115.082C156.364 115.173 156.824 115.204 157.314 115.235C158.938 115.327 161.634 115.48 162.645 118.942C163.441 121.608 162.063 123.875 158.969 125.009C158.049 125.346 157.1 125.315 156.273 125.315C155.445 125.284 154.741 125.284 154.343 125.591C153.975 125.867 153.546 126.387 153.056 126.97C152.014 128.226 150.728 129.788 148.797 130.493C147.327 131.045 144.692 131.259 142.364 131.474C141.261 131.566 139.76 131.688 139.208 131.811C138.289 132.76 135.777 134.936 134.399 135.641C134.092 135.794 133.786 136.376 133.449 136.897C132.959 137.724 132.346 138.766 131.304 139.44C130.661 139.838 129.895 140.145 129.068 140.451C128.272 140.757 126.74 141.37 126.525 141.768C126.495 141.86 126.77 142.351 126.954 142.657C127.475 143.607 128.272 145.077 127.873 147.161C127.598 148.509 126.985 150.041 126.342 151.542C125.821 152.799 125.024 154.729 125.116 155.28C125.208 155.679 125.361 156.077 125.514 156.475C126.005 157.701 126.679 159.386 125.514 161.071C124.534 162.481 122.114 163.155 120.306 163.308C119.05 163.4 116.753 163.369 115.374 161.96C114.149 160.704 113.597 159.141 113.199 157.762C112.954 156.966 112.709 156.2 112.372 155.771L112.004 155.28C111.238 154.208 111.054 153.932 109.431 154.208C107.776 154.484 105.54 156.506 103.886 157.977C103.181 158.62 102.507 159.202 101.986 159.601C100.761 160.489 100.179 161.561 100.301 162.664C100.454 164.258 99.1983 165.177 98.1873 165.912C97.7278 166.249 97.2682 166.586 96.9006 166.985C96.1653 167.812 95.2769 169.16 95.3382 170.845C95.3688 172.255 94.4804 173.633 93.5919 174.982C93.2856 175.472 92.8261 176.146 92.6729 176.513C93.1018 177.034 94.4498 178.015 95.3382 178.72C96.5636 179.639 97.8197 180.589 98.6162 181.446C99.1983 182.059 100.056 183.162 101.067 184.418C102.476 186.196 105.142 189.505 105.877 189.934C106.673 190.271 113.689 191.251 117.672 191.006C118.07 190.975 118.468 190.914 118.805 190.853C123.891 189.872 126.832 193.886 128.547 196.981C130.876 201.117 132.836 203.813 135.41 204.303C138.259 204.824 144.478 204.089 146.806 203.783L147.296 203.721C151.065 203.262 152.167 205.223 152.995 206.663C153.27 207.153 153.546 207.612 153.914 208.011C154.251 208.409 155.017 208.838 155.813 209.328C158.049 210.707 161.45 212.791 160.837 216.774C160.378 219.684 157.774 221.247 155.507 222.595C153.852 223.606 152.259 224.525 151.616 225.812C149.931 229.121 148.92 234.177 148.951 236.965C149.012 239.937 148.001 241.99 145.856 243.246C145.611 243.399 145.336 243.522 145.029 243.675C143.681 244.38 141.996 245.268 141.506 246.8C140.373 250.232 138.014 250.63 135.502 250.753C134.307 250.814 132.836 253.112 132.07 256.176C131.335 259.056 130.018 262.12 128.884 263.621C128.578 264.05 128.026 264.632 127.352 265.337C126.342 266.409 123.676 269.228 123.676 270.178C123.676 270.301 123.676 270.699 123.707 271.281C123.799 274.406 123.86 277.838 123.676 279.033L123.462 280.749ZM96.4104 263.805C100.301 265.705 103.12 268.125 105.877 270.454C107.439 271.802 108.94 273.058 110.564 274.161C111.912 275.08 115.772 275.908 118.591 276.551C119.479 276.735 120.276 276.919 121.011 277.103C121.042 275.326 120.95 272.691 120.919 271.465C120.888 270.791 120.888 270.301 120.888 270.209C120.919 268.34 122.849 266.164 125.331 263.499C125.913 262.886 126.403 262.365 126.678 261.997C127.598 260.802 128.731 258.045 129.374 255.563C129.803 253.847 131.519 248.148 135.44 247.995C137.799 247.873 138.351 247.566 138.872 246.004C139.699 243.369 142.18 242.082 143.804 241.224C144.049 241.101 144.294 240.979 144.508 240.856C145.397 240.335 146.224 239.508 146.193 237.057C146.163 233.84 147.266 228.294 149.165 224.556C150.176 222.564 152.198 221.339 154.128 220.205C156.058 219.041 157.866 217.969 158.111 216.375C158.417 214.414 156.855 213.281 154.404 211.81C153.454 211.228 152.535 210.676 151.922 210.002C151.34 209.39 150.973 208.715 150.636 208.133C149.9 206.846 149.625 206.356 147.725 206.601L147.235 206.663C144.539 207 138.228 207.766 134.95 207.153C130.876 206.356 128.363 202.404 126.158 198.421C123.462 193.641 121.317 193.335 119.357 193.702C118.928 193.763 118.468 193.855 117.978 193.886C113.934 194.162 106.306 193.212 104.805 192.569C103.702 192.078 102.109 190.179 98.9532 186.226C98.0035 185.031 97.1457 183.959 96.6249 183.377C96.0122 182.703 94.8787 181.845 93.7451 181.017C91.4475 179.302 90.1301 178.26 89.9157 177.065C89.7012 175.901 90.4671 174.767 91.2943 173.48C91.8151 172.684 92.581 171.489 92.581 170.968C92.5197 168.884 93.3162 166.862 94.8786 165.116C95.4301 164.503 96.0428 164.043 96.5943 163.645C96.9619 163.369 97.4827 162.971 97.5746 162.818C97.452 161.715 97.6665 159.325 100.393 157.333C100.853 156.966 101.465 156.445 102.109 155.863C104.1 154.055 106.581 151.849 109.063 151.42C112.464 150.838 113.566 152.4 114.455 153.657L114.792 154.116C115.374 154.913 115.711 155.924 116.048 156.966C116.385 158.069 116.783 159.233 117.549 160.029C117.825 160.305 118.652 160.612 120.031 160.52C121.746 160.397 123.094 159.784 123.309 159.478C123.554 159.11 123.431 158.681 123.002 157.548C122.788 157.027 122.604 156.506 122.481 155.954C122.175 154.698 122.818 153.074 123.86 150.501C124.411 149.122 125.024 147.682 125.208 146.64C125.422 145.568 125.024 144.863 124.595 144.066C124.136 143.27 123.584 142.259 123.921 141.002C124.411 139.317 126.372 138.521 128.149 137.847C128.823 137.571 129.497 137.326 129.895 137.05C130.355 136.774 130.722 136.161 131.09 135.487C131.58 134.629 132.162 133.68 133.173 133.128C134.276 132.546 136.911 130.248 137.34 129.727C137.922 129.022 138.902 128.9 142.211 128.624C144.233 128.44 146.776 128.256 147.878 127.828C149.104 127.368 150.084 126.204 150.942 125.162C151.524 124.457 152.075 123.783 152.719 123.324C153.914 122.435 155.292 122.466 156.426 122.496C157.069 122.527 157.651 122.527 158.08 122.374C160.531 121.455 160.163 120.229 160.01 119.769C159.581 118.268 158.877 118.176 157.222 118.084C156.61 118.054 155.966 118.023 155.354 117.839C152.964 117.134 151.524 113.887 150.268 111.006C149.808 109.934 149.349 108.954 148.981 108.31C148.338 107.299 148.338 107.299 146.622 107.575C146.04 107.667 145.366 107.789 144.57 107.851C142.088 108.065 140.771 107.422 139.882 106.993C139.484 106.809 139.27 106.686 139.086 106.686C138.688 106.686 138.167 106.901 137.095 109.107C136.237 110.792 134.583 111.098 133.48 111.313C132.285 111.527 132.132 111.65 132.04 111.956L131.887 112.477C131.519 113.703 131.274 114.622 129.987 115.848C129.129 116.675 127.965 116.491 126.924 116.338C125.943 116.185 124.932 116.031 124.013 116.491C121.624 117.686 119.694 117.441 118.529 117.012C117.212 116.552 116.14 115.602 115.65 114.53C115.221 113.55 115.558 112.538 115.864 111.558C116.354 110.026 116.507 109.26 115.711 108.555C115.251 108.31 112.862 108.647 110.993 109.781C109.614 110.608 108.113 110.945 107.133 111.129L106.704 111.221C103.579 111.926 99.9948 110.026 98.7387 107.943C97.9729 106.748 97.6665 104.94 97.452 103.653C97.3908 103.316 97.3601 103.01 97.2989 102.795C96.7168 102.244 94.7255 100.773 93.4694 99.8537C64.3349 106.594 39.2749 123.936 22.6091 148.846C23.5281 149.704 24.2634 149.827 24.8761 149.949C25.3969 149.98 28.4911 149.704 31.0032 149.459C34.4651 149.122 38.0494 148.785 39.4587 148.815C42.2772 148.877 43.6251 152.768 44.8506 156.2C45.2182 157.211 45.6165 158.344 45.8615 158.712C47.1482 160.642 49.2621 168.241 49.4459 170.11C49.5991 171.826 50.6407 173.94 51.2841 173.94C51.2841 173.94 51.2841 173.94 51.3147 173.94C52.2031 173.879 52.6014 173.664 53.0916 173.358C53.5205 173.113 54.0413 172.806 54.7765 172.714C56.4309 172.469 57.9014 173.848 59.0962 174.951C59.3106 175.135 59.4944 175.319 59.6782 175.472C60.4748 176.146 63.4158 177.708 65.1008 178.382C65.8666 178.689 67.3065 178.72 68.7158 178.75C69.7574 178.781 70.799 178.811 71.7793 178.934C75.0267 179.424 79.3464 185.889 79.5302 186.165C80.3573 187.39 80.6943 187.421 80.7556 187.421C82.1648 187.237 83.9111 187.819 86.0249 188.555C87.6486 189.168 90.2833 192.385 93.9596 197.379C94.3885 197.961 94.6948 198.39 94.8174 198.513C95.4301 199.217 97.2989 201.393 95.6445 203.691C95.0012 204.61 93.1018 206.571 89.2723 204.702C88.2307 204.181 87.0359 204.487 85.1671 205.039C84.6463 205.192 84.1255 205.345 83.5741 205.498C81.644 205.958 72.8209 214.69 72.1776 216.375C72.0551 216.957 72.2695 220.542 73.8626 222.35C75.6701 224.403 74.9042 227.344 74.3834 229.305C74.2608 229.765 74.1077 230.408 74.1077 230.623C74.1383 230.898 74.7204 231.756 75.0574 232.247C75.7926 233.319 76.436 234.269 76.3441 235.249C76.2215 236.873 75.4556 237.976 74.8123 238.865C74.4446 239.386 74.1383 239.845 73.9851 240.274C73.8319 240.826 73.9545 242.174 74.6591 242.695C75.5169 243.307 76.5585 243.124 77.5082 242.909C77.9984 242.786 78.1516 242.603 78.5192 242.204C78.9787 241.683 79.6833 240.856 80.97 240.826C82.1955 240.795 83.3596 241.653 84.4931 242.48C84.9527 242.817 85.6573 243.338 85.9024 243.399C86.1168 243.399 86.6989 243.338 87.4342 243.277C89.1191 243.154 91.4168 243.001 93.1324 243.124C96.196 243.399 97.0844 246.77 97.7584 249.221L98.0035 250.109C98.7081 252.591 99.9335 256.727 97.452 261.691C96.9619 262.641 96.6249 263.315 96.4104 263.805Z" fill="#024755"/>
<path d="M235.987 190.241C234.731 189.444 233.536 188.678 232.923 188.28C231.391 187.3 227.684 186.38 226.03 185.124C224.345 183.837 223.671 180.344 223.058 177.127C222.446 173.88 219.872 172.807 218.831 172.531C217.82 172.225 208.874 173.236 207.22 173.451C205.565 173.696 203.145 182.642 198.489 180.988C196.405 180.252 196.436 179.18 195.885 177.342C195.333 175.473 189.666 173.42 186.571 170.662C183.446 167.874 182.19 164.902 182.037 162.88C181.762 159.111 186.388 157.855 186.939 156.446C187.521 155.006 186.234 148.02 185.836 144.496C185.407 141.003 186.694 140.084 188.226 139.38C189.757 138.675 191.136 139.778 193.005 140.207C194.874 140.605 197.141 136.499 198.274 135.029C199.377 133.558 197.998 130.709 198.887 129.115C199.163 128.594 199.806 127.859 200.572 127.062C218.249 143.424 230.993 165.3 235.987 190.241Z" fill="#B3CC22"/>
<path d="M238.008 193.182L235.221 191.436C234.332 190.884 233.474 190.333 232.831 189.904L232.157 189.475C231.606 189.138 230.533 188.709 229.522 188.341C227.929 187.728 226.275 187.085 225.172 186.258C223.058 184.634 222.323 180.804 221.68 177.403C221.189 174.829 219.137 174.094 218.494 173.94C217.483 173.787 210.069 174.553 207.649 174.86C207.342 175.166 206.821 176.085 206.423 176.759C204.83 179.394 202.195 183.837 198.06 182.366C195.609 181.478 195.18 179.976 194.782 178.506C194.72 178.291 194.659 178.046 194.567 177.77C194.322 177.219 192.239 175.993 190.86 175.197C189.114 174.186 187.153 173.052 185.652 171.704C182.742 169.13 180.873 165.852 180.658 162.972C180.413 159.663 183.017 157.824 184.549 156.752C184.978 156.445 185.53 156.047 185.652 155.863C185.897 155.005 185.223 150.318 184.856 147.774C184.702 146.61 184.519 145.538 184.427 144.649C183.906 140.421 185.652 138.981 187.613 138.062C189.206 137.326 190.584 137.847 191.84 138.307C192.3 138.491 192.79 138.675 193.311 138.766C194.016 138.675 195.731 136.131 196.313 135.304C196.62 134.845 196.926 134.416 197.171 134.109C197.416 133.772 197.324 132.822 197.263 132.056C197.14 130.862 197.018 129.544 197.661 128.38C197.998 127.798 198.58 127.093 199.561 126.051L200.541 125.04L201.552 125.99C220.056 143.209 232.433 165.331 237.365 189.965L238.008 193.182ZM218.034 171.06C218.585 171.06 219.014 171.091 219.259 171.152C221.343 171.704 223.824 173.481 224.468 176.821C224.958 179.425 225.632 182.979 226.888 183.96C227.654 184.572 229.185 185.155 230.533 185.645C231.759 186.104 232.892 186.533 233.689 187.054L233.903 187.177C228.787 164.933 217.36 144.894 200.694 128.993C200.388 129.36 200.235 129.575 200.173 129.697C199.959 130.065 200.051 130.953 200.112 131.719C200.235 133.037 200.388 134.538 199.469 135.764C199.254 136.04 198.979 136.438 198.703 136.836C197.14 139.134 195.18 141.984 192.76 141.463C192.055 141.31 191.442 141.095 190.891 140.881C189.819 140.482 189.328 140.329 188.869 140.544C187.797 141.034 186.969 141.432 187.306 144.22C187.398 145.078 187.551 146.151 187.735 147.284C188.562 153.044 188.838 155.649 188.348 156.874C188.011 157.732 187.184 158.314 186.265 158.958C184.61 160.122 183.446 161.072 183.569 162.665C183.63 163.492 184.09 166.373 187.613 169.498C188.899 170.631 190.738 171.704 192.361 172.654C194.873 174.124 196.895 175.258 197.355 176.851C197.447 177.127 197.508 177.403 197.569 177.648C197.937 178.965 197.998 179.18 199.071 179.578C200.878 180.222 202.41 177.985 204.064 175.197C205.106 173.42 205.872 172.163 207.128 171.98C207.128 172.041 214.787 171.06 218.034 171.06Z" fill="#024755"/>
<path d="M124.932 43.6608C119.295 44.0592 110.013 44.1817 106.398 33.4886C103.181 23.9904 107.654 17.7706 108.45 12.4393C109.124 7.72084 108.358 4.74882 107.317 2.7879C106.949 2.08319 107.592 1.31721 108.42 1.43977C113.046 2.14447 124.013 4.41179 131.151 10.5397C140.403 18.4753 143.835 30.4859 135.134 39.4326C133.02 41.5774 127.904 43.4464 124.932 43.6608Z" fill="#E94E1B"/>
<path d="M121.624 45.2242C116.232 45.2242 108.389 43.8148 105.05 33.9489C102.599 26.6874 104.376 21.1723 105.816 16.7602C106.337 15.1363 106.827 13.635 107.041 12.2562C107.562 8.64075 107.225 5.69937 106.061 3.49334C105.632 2.72735 105.693 1.77753 106.214 1.07282C106.765 0.306838 107.685 -0.0914736 108.634 0.0617234C113.168 0.73579 124.595 3.06438 132.04 9.46802C137.799 14.401 141.231 20.7433 141.506 26.8712C141.721 31.8654 139.852 36.5532 136.084 40.4138C133.786 42.773 128.333 44.7952 125.024 45.0403C124.105 45.1323 122.941 45.2242 121.624 45.2242ZM108.971 2.97247C110.105 5.60745 110.411 8.85523 109.86 12.6545C109.615 14.2784 109.094 15.9023 108.542 17.6181C107.164 21.8463 105.601 26.6567 107.776 33.0297C110.809 42.007 118.131 42.7118 124.871 42.2215C127.567 42.0377 132.346 40.2606 134.093 38.4529C137.34 35.1132 138.902 31.2526 138.719 26.9937C138.473 21.6625 135.379 16.0555 130.232 11.6128C123.676 6.0364 113.689 3.76909 108.971 2.97247Z" fill="#024755"/>
<path d="M116.201 43.6307C121.838 44.029 131.121 44.1516 134.736 33.4584C137.953 23.9602 133.48 17.7404 132.683 12.4091C132.009 7.81324 132.744 4.84122 133.755 2.8803C134.154 2.11431 133.449 1.28705 132.561 1.40961C127.843 2.14495 117.059 4.44291 110.013 10.4789C100.761 18.4145 97.3296 30.4251 106.03 39.3718C108.144 41.5472 113.229 43.4162 116.201 43.6307Z" fill="#E94E1B"/>
<path d="M119.51 45.1936C118.193 45.1936 117.028 45.1016 116.079 45.0404C112.739 44.7952 107.317 42.773 105.019 40.4138C101.251 36.5532 99.3822 31.8654 99.5967 26.8712C99.8724 20.7433 103.334 14.401 109.063 9.46802C116.446 3.09502 127.782 0.766429 132.316 0.0617234C133.296 -0.0914736 134.246 0.306839 134.797 1.07282C135.318 1.80817 135.41 2.75799 134.981 3.58525C133.847 5.79129 133.541 8.70203 134.062 12.2562C134.276 13.635 134.766 15.1669 135.287 16.7602C136.727 21.1723 138.504 26.6874 136.053 33.9489C132.744 43.7841 124.932 45.1936 119.51 45.1936ZM116.324 42.2215C123.064 42.7118 130.386 41.9764 133.418 33.0297C135.594 26.6567 134.031 21.8463 132.653 17.6181C132.101 15.9023 131.55 14.2478 131.335 12.6545C130.784 8.85523 131.09 5.57681 132.224 2.97247C127.598 3.73845 117.519 6.00577 110.993 11.6434C105.846 16.0861 102.752 21.6931 102.507 27.0244C102.323 31.2833 103.855 35.1438 107.133 38.4835C108.849 40.23 113.628 42.0071 116.324 42.2215Z" fill="#024755"/>
<path d="M118.07 56.8652C111.238 57.3554 100.026 57.478 95.6753 44.5788C91.7845 33.1196 97.2071 25.5823 98.1568 19.1481C98.9839 13.4492 98.0342 9.86434 96.7782 7.50511C96.3186 6.67785 97.1151 5.72803 98.0955 5.85058C103.702 6.70849 116.936 9.43539 125.545 16.8501C136.727 26.4403 140.863 40.9327 130.355 51.7484C127.812 54.3527 121.654 56.5894 118.07 56.8652Z" fill="#E94E1B"/>
<path d="M114.087 58.4596C107.623 58.4596 98.3101 56.7745 94.3274 45.0396C91.3864 36.338 93.5309 29.7505 95.2465 24.4499C95.8899 22.489 96.4719 20.6506 96.717 18.9655C97.3604 14.5534 96.9621 10.9073 95.4916 8.18042C95.0321 7.35315 95.0933 6.34205 95.6448 5.57607C96.2268 4.74881 97.2378 4.31985 98.2794 4.47305C103.763 5.33095 117.488 8.11914 126.434 15.8096C133.327 21.723 137.462 29.3216 137.769 36.6138C138.045 42.5578 135.808 48.1648 131.305 52.7607C128.578 55.5795 122.083 58.0001 118.131 58.2758C117.059 58.3371 115.65 58.4596 114.087 58.4596ZM98.2488 7.32251C99.8112 10.509 100.24 14.5534 99.5355 19.3638C99.2598 21.2941 98.6164 23.255 97.9424 25.3385C96.2575 30.4859 94.3581 36.338 97.0234 44.1511C100.761 55.1812 109.707 56.0698 117.978 55.457C121.287 55.2119 127.108 53.0978 129.313 50.7998C133.235 46.7554 135.195 41.9144 134.981 36.767C134.705 30.2408 130.906 23.3776 124.626 17.985C116.416 10.9073 103.733 8.21106 98.2488 7.32251Z" fill="#024755"/>
<path d="M121.9 56.8364C128.732 57.3266 139.944 57.4491 144.294 44.55C148.185 33.0908 142.763 25.5535 141.813 19.1193C140.986 13.5429 141.874 9.98873 143.1 7.6295C143.559 6.71031 142.732 5.69921 141.66 5.85241C135.962 6.74095 122.911 9.4985 114.394 16.8213C103.212 26.4114 99.0761 40.9039 109.584 51.7196C112.127 54.3239 118.315 56.5606 121.9 56.8364Z" fill="#E94E1B"/>
<path d="M125.882 58.4286C124.32 58.4286 122.91 58.3367 121.807 58.2448C117.855 57.969 111.361 55.5485 108.634 52.7297C104.131 48.1032 101.925 42.5268 102.17 36.5827C102.507 29.2599 106.643 21.692 113.505 15.7786C122.39 8.1494 136.022 5.33057 141.476 4.47267C142.548 4.28883 143.589 4.71778 144.202 5.57569C144.784 6.37231 144.846 7.41405 144.417 8.27195C143.007 10.9682 142.64 14.553 143.252 18.9038C143.498 20.589 144.11 22.4274 144.723 24.3883C146.439 29.6889 148.583 36.2764 145.642 44.9779C141.659 56.7435 132.316 58.4286 125.882 58.4286ZM121.991 55.3953C130.263 55.9775 139.209 55.1196 142.946 44.0894C145.581 36.2764 143.681 30.4549 142.027 25.2768C141.353 23.1933 140.71 21.2324 140.434 19.3021C139.729 14.4917 140.158 10.4167 141.751 7.19957C136.482 8.08812 123.646 10.7844 115.374 17.8621C109.094 23.2853 105.295 30.1178 105.019 36.644C104.774 41.7914 106.735 46.6631 110.687 50.6769C112.893 53.0361 118.683 55.1809 121.991 55.3953Z" fill="#024755"/>
<path d="M10.2014 258.29C16.6655 254.889 30.7273 249.282 48.6492 250.906C73.9543 253.234 94.6334 257.922 104.621 267.666C114.608 277.409 134.858 279.247 138.044 279.676C141.2 280.105 162.706 280.687 173.398 284.241C183.201 287.52 187.031 292.943 185.407 296.62C182.742 302.656 157.957 304.28 145.427 309.979C140.495 312.215 129.282 311.541 125.208 309.917C121.133 308.293 109.737 306.547 104.774 306.792C99.8108 307.037 89.8542 307.558 77.5693 298.918" fill="#024755"/>
<path d="M136.022 312.859C131.55 312.859 127.046 312.216 124.626 311.266C120.643 309.703 109.523 307.988 104.805 308.233C99.811 308.509 89.3949 309.029 76.7117 300.083C76.0683 299.623 75.9152 298.735 76.3747 298.091C76.8342 297.448 77.7227 297.295 78.366 297.754C90.2527 306.119 99.9948 305.628 104.682 305.383C109.798 305.108 121.379 306.885 125.698 308.6C129.497 310.102 140.373 310.715 144.815 308.692C150.237 306.241 157.682 304.556 164.912 302.932C173.306 301.033 182.834 298.888 184.09 296.069C184.457 295.242 184.396 294.292 183.937 293.25C182.65 290.339 178.545 287.49 172.938 285.621C164.759 282.894 149.625 281.914 142.364 281.454C140.158 281.301 138.596 281.209 137.83 281.117L136.972 281.025C121.225 279.125 110.013 274.958 103.61 268.708C95.0318 260.343 77.018 254.982 48.4962 252.347C30.1761 250.631 16.0837 256.82 10.8756 259.547C10.171 259.914 9.31316 259.639 8.94553 258.965C8.57791 258.26 8.85363 257.402 9.52761 257.034C14.9501 254.185 29.6246 247.751 48.7719 249.497C78.366 252.224 96.4104 257.678 105.601 266.655C111.544 272.446 122.206 276.337 137.309 278.176L138.198 278.298C138.841 278.39 140.465 278.482 142.517 278.635C150.482 279.156 165.279 280.106 173.796 282.925C180.23 285.069 184.856 288.409 186.51 292.086C187.307 293.863 187.337 295.64 186.663 297.203C184.917 301.124 177.472 302.993 165.494 305.69C158.417 307.283 151.126 308.937 145.948 311.266C143.528 312.4 139.791 312.859 136.022 312.859Z" fill="#32B4A1"/>
<path d="M120.092 333.97C81.3683 333.97 44.4829 315.096 21.935 283.109C20.8322 281.546 19.668 279.83 18.4426 277.9C8.4247 261.967 2.20565 243.614 0.520688 224.832C-1.9608 197.563 4.65651 171.091 19.6374 148.203C36.7933 122.007 62.9869 103.807 93.4081 96.9436C98.6162 95.7793 103.916 94.9214 109.124 94.4618C141.047 91.5817 172.172 101.264 196.804 121.761C221.435 142.29 236.599 171.152 239.51 203.078C245.514 268.984 196.773 327.474 130.876 333.48C127.261 333.786 123.646 333.97 120.092 333.97ZM120.184 96.7904C116.599 96.7904 112.984 96.9436 109.369 97.2806C104.284 97.7402 99.1063 98.5674 94.0208 99.7011C64.3348 106.411 38.754 124.182 21.9963 149.766C7.38308 172.102 0.918952 197.962 3.33917 224.587C5.02413 242.94 11.0594 260.864 20.8322 276.368C22.0269 278.237 23.1605 279.922 24.2327 281.454C48.3124 315.586 89.0885 334.429 130.6 330.661C194.935 324.809 242.512 267.697 236.661 203.354C233.811 172.194 219.014 144.006 194.965 123.967C173.735 106.258 147.511 96.7904 120.184 96.7904Z" fill="#024755"/>
</svg>
