<svg width="418" height="110" viewBox="0 0 418 110" fill="none" xmlns="http://www.w3.org/2000/svg">
<g clip-path="url(#clip0_87_131)">
<path d="M38.4598 30.7407C38.5098 31.0607 38.1798 31.3307 37.8098 31.2907C37.5998 31.2607 37.3398 31.2307 37.0198 31.1907C36.0998 31.0707 34.6398 31.1307 31.8698 30.7307C27.9898 30.1707 26.3098 28.5907 24.6198 26.2007C23.2198 24.2207 22.0698 21.8207 21.2998 20.4807C21.1198 20.1607 21.3798 19.7907 21.7998 19.7807C22.3298 19.7707 22.9698 19.7607 23.3698 19.7707C25.1598 19.8307 28.9198 20.4807 31.6998 21.7307C34.8298 23.1407 36.7098 24.9407 37.7498 27.4507C38.0798 28.2507 38.3398 29.8507 38.4598 30.7407Z" fill="#6AA62F"/>
<path d="M37.8999 31.7608C37.8499 31.7608 37.7999 31.7608 37.7599 31.7508L36.9699 31.6508C36.6699 31.6108 36.2999 31.5908 35.8199 31.5708C34.8999 31.5208 33.6399 31.4608 31.8099 31.1908C27.8799 30.6208 26.0599 29.0308 24.2499 26.4708C23.2299 25.0308 22.3399 23.3808 21.6399 22.0508C21.3699 21.5408 21.1199 21.0808 20.9099 20.7108C20.7499 20.4308 20.7499 20.1008 20.8999 19.8308C21.0699 19.5208 21.4099 19.3308 21.7899 19.3208C22.2799 19.3108 22.9499 19.3008 23.3799 19.3108C25.1899 19.3708 29.0299 20.0308 31.8799 21.3108C35.0799 22.7508 37.0799 24.6508 38.1699 27.2808C38.5099 28.0908 38.7599 29.5808 38.9199 30.6908C38.9599 30.9708 38.8699 31.2508 38.6599 31.4608C38.4599 31.6408 38.1899 31.7608 37.8999 31.7608ZM22.8999 20.2208C22.5399 20.2208 22.1299 20.2308 21.8099 20.2408C21.7399 20.2408 21.7099 20.2708 21.6999 20.2808C21.9199 20.6308 22.1699 21.1008 22.4499 21.6208C23.1499 22.9208 24.0099 24.5408 24.9999 25.9408C26.7099 28.3508 28.3199 29.7508 31.9399 30.2808C33.7299 30.5408 34.9599 30.6008 35.8699 30.6508C36.3599 30.6808 36.7499 30.7008 37.0899 30.7408L37.8799 30.8408C37.9499 30.8508 37.9899 30.8208 38.0099 30.8108C37.7999 29.3508 37.5499 28.1908 37.3199 27.6408C36.3199 25.2108 34.5199 23.5208 31.5099 22.1608C28.7699 20.9308 25.0999 20.3008 23.3599 20.2408C23.2199 20.2208 23.0699 20.2208 22.8999 20.2208Z" fill="#024755"/>
<path d="M39.88 30.7605C39.84 31.0705 40.1499 31.3405 40.5099 31.2905C40.7199 31.2605 40.98 31.2305 41.32 31.1905C42.24 31.0705 43.7 31.1305 46.47 30.7305C50.35 30.1705 52.03 28.5905 53.72 26.2005C55.31 23.9605 56.58 21.1705 57.33 20.0005C57.39 19.9105 57.3099 19.7905 57.1899 19.7905C56.6799 19.7705 55.5699 19.7405 54.9799 19.7605C53.1899 19.8205 49.43 20.4705 46.65 21.7205C43.52 23.1305 41.6399 24.9305 40.5999 27.4405C40.2699 28.2605 40.01 29.8705 39.88 30.7605Z" fill="#6AA62F"/>
<path d="M40.4301 31.7603C40.1501 31.7603 39.8701 31.6503 39.6801 31.4603C39.4801 31.2603 39.3801 30.9803 39.4201 30.7003C39.5801 29.5903 39.8301 28.0903 40.1701 27.2803C41.2601 24.6503 43.2501 22.7503 46.4601 21.3103C49.3101 20.0303 53.1501 19.3703 54.9601 19.3103C55.5501 19.2903 56.6201 19.3203 57.2001 19.3403C57.4301 19.3503 57.6401 19.4803 57.7401 19.6703C57.8401 19.8603 57.8301 20.0803 57.7101 20.2603C57.4401 20.6703 57.1001 21.3103 56.7001 22.0603C55.9901 23.3803 55.1101 25.0303 54.0901 26.4703C52.2801 29.0303 50.4601 30.6203 46.5301 31.1903C44.7001 31.4503 43.4401 31.5203 42.5201 31.5703C42.0501 31.5903 41.6701 31.6103 41.3701 31.6503L40.5601 31.7503C40.5201 31.7503 40.4801 31.7603 40.4301 31.7603ZM40.3401 30.8103C40.3601 30.8203 40.3901 30.8403 40.4501 30.8303L41.2601 30.7303C41.6001 30.6903 41.9801 30.6703 42.4801 30.6403C43.3801 30.5903 44.6201 30.5303 46.4101 30.2703C50.0301 29.7503 51.6401 28.3403 53.3501 25.9303C54.3401 24.5303 55.2101 22.9203 55.9001 21.6203C56.1801 21.1003 56.4301 20.6303 56.6501 20.2403C56.0901 20.2303 55.4101 20.2103 55.0001 20.2303C53.2601 20.2903 49.5801 20.9203 46.8501 22.1503C43.8301 23.5103 42.0401 25.2003 41.0401 27.6303C40.8001 28.1803 40.5501 29.3403 40.3401 30.8103Z" fill="#024755"/>
<path d="M40.05 16.71H38.28V32.84H40.05V16.71Z" fill="#32B4A1"/>
<path d="M40.5101 33.3H37.8201V16.25H40.5101V33.3ZM38.7401 32.37H39.5801V17.17H38.7401V32.37Z" fill="#004C69"/>
<path d="M77.7099 66.3201C79.6499 87.6101 63.9599 106.44 42.6699 108.38C28.3999 109.68 15.2299 103.05 7.52988 92.1301C7.13988 91.5801 6.76988 91.0201 6.39988 90.4501C3.24988 85.4501 1.19988 79.6401 0.629881 73.3401C-0.200119 64.2901 2.16988 55.6801 6.79988 48.6201C12.1599 40.4301 20.5699 34.3501 30.5899 32.0901C32.2399 31.7201 33.9299 31.4501 35.6599 31.2901C56.9399 29.3501 75.7699 45.0401 77.7099 66.3201Z" fill="#32B4A1"/>
<path d="M39.2 109C26.56 109 14.52 102.84 7.15996 92.4005C6.79996 91.8905 6.41996 91.3305 6.01996 90.7005C2.74996 85.5005 0.719958 79.5105 0.169958 73.3805C-0.640042 64.4805 1.51996 55.8405 6.40996 48.3705C12.01 39.8205 20.56 33.8805 30.49 31.6405C32.19 31.2605 33.92 30.9805 35.62 30.8305C46.04 29.8905 56.2 33.0505 64.24 39.7405C72.28 46.4405 77.23 55.8605 78.18 66.2805C80.14 87.7905 64.23 106.88 42.72 108.84C41.54 108.94 40.36 109 39.2 109ZM39.23 31.5905C38.06 31.5905 36.88 31.6405 35.7 31.7505C34.04 31.9005 32.35 32.1705 30.69 32.5405C21 34.7305 12.65 40.5305 7.17996 48.8805C2.40996 56.1705 0.299958 64.6105 1.08996 73.3005C1.63996 79.2905 3.60996 85.1405 6.79996 90.2005C7.18996 90.8105 7.55996 91.3605 7.90996 91.8605C15.77 103 29.08 109.15 42.63 107.92C63.63 106.01 79.16 87.3705 77.25 66.3705C76.32 56.2005 71.49 47.0005 63.64 40.4605C56.71 34.6805 48.15 31.5905 39.23 31.5905Z" fill="#024755"/>
<path d="M74.8901 81.1701C76.1401 81.6901 75.6901 82.5901 75.5701 83.0001C75.0901 84.7101 72.9801 89.1601 70.7001 92.2101C65.7701 98.8101 61.2101 101.65 58.2501 103.51C55.8901 105 48.1701 109.08 37.3101 108.49C36.8101 108.47 36.3101 108.44 35.7901 108.39C21.6201 107.14 9.90009 98.4101 4.21009 86.4201C3.90009 85.7701 3.61009 85.1201 3.34009 84.4601C5.45009 83.3501 9.92009 81.5301 15.8001 82.0701C24.0801 82.8401 30.8101 84.2101 34.0701 87.3901C37.3301 90.5701 44.0001 91.3001 45.0401 91.4401C46.0701 91.5801 53.0801 91.7001 56.5801 92.8701C56.9801 93.0101 57.8501 93.4001 58.1901 93.5301C59.8201 92.7501 61.7601 91.5001 63.2401 90.2801C64.8001 88.9901 66.6401 87.1701 67.5201 86.2801C68.8601 84.9401 70.5701 82.8301 71.0101 82.3601C72.5201 80.7101 73.8501 80.7301 74.8901 81.1701Z" fill="#024755"/>
<path d="M39.46 109.01C38.75 109.01 38.02 108.99 37.28 108.95C36.78 108.93 36.27 108.9 35.75 108.85C21.97 107.64 9.73 99.1303 3.79 86.6203C3.48 85.9703 3.18 85.3003 2.91 84.6403L2.75 84.2503L3.12 84.0503C5.31 82.9003 9.86 81.0603 15.84 81.6103C25.74 82.5303 31.46 84.2103 34.39 87.0603C36.35 88.9703 40.11 90.3603 44.97 90.9703L45.1 90.9903C45.32 91.0203 45.87 91.0503 46.57 91.0903C49.15 91.2403 53.95 91.5103 56.72 92.4303C56.99 92.5203 57.43 92.7103 57.82 92.8803C57.95 92.9303 58.06 92.9803 58.17 93.0303C59.73 92.2603 61.54 91.0903 62.94 89.9303C64.58 88.5703 66.54 86.6103 67.19 85.9603C68.14 85.0103 69.26 83.6903 70 82.8103C70.3 82.4603 70.53 82.1803 70.66 82.0503C72.05 80.5403 73.53 80.0903 75.07 80.7403C76.58 81.3703 76.2 82.5603 76.06 83.0003L76.02 83.1203C75.52 84.9103 73.34 89.4503 71.08 92.4803C66.14 99.0903 61.59 101.95 58.58 103.85L58.51 103.9C56.51 105.15 49.55 109.01 39.46 109.01ZM3.93 84.6803C4.15 85.2003 4.38 85.7203 4.63 86.2203C10.43 98.4303 22.39 106.74 35.84 107.92C36.35 107.96 36.84 108 37.34 108.02C48.33 108.62 55.95 104.41 58.02 103.11L58.09 103.06C61.04 101.2 65.5 98.4003 70.34 91.9203C72.54 88.9803 74.65 84.5903 75.13 82.8603C75.14 82.8103 75.16 82.7603 75.18 82.7103C75.34 82.2003 75.41 81.8803 74.72 81.5903C73.98 81.2803 72.83 81.0603 71.35 82.6703C71.23 82.8003 71 83.0703 70.72 83.4103C69.97 84.3003 68.83 85.6403 67.85 86.6103C67.2 87.2603 65.21 89.2503 63.54 90.6303C62.03 91.8803 60.06 93.1503 58.4 93.9403L58.22 94.0303L58.03 93.9603C57.9 93.9103 57.7 93.8203 57.47 93.7303C57.12 93.5803 56.68 93.3903 56.44 93.3103C53.79 92.4303 49.07 92.1603 46.53 92.0103C45.78 91.9703 45.24 91.9403 44.99 91.9003L44.87 91.8903C39.73 91.2503 35.89 89.8103 33.76 87.7303C30.99 85.0303 25.44 83.4303 15.77 82.5403C10.34 82.0403 6.15 83.5803 3.93 84.6803Z" fill="#024755"/>
<path d="M52.65 38.9604C52.85 39.6204 52.47 40.1004 51.73 40.3804C51.23 40.5704 50.57 40.2904 50.1 40.6304C49.65 40.9704 49.2 41.8703 48.41 42.1703C47.61 42.4703 45.33 42.4504 45.16 42.6504C44.99 42.8504 44.09 43.6503 43.66 43.8703C43.23 44.1003 43.11 44.8204 42.62 45.1304C42.12 45.4404 41.01 45.6504 40.87 46.1504C40.73 46.6604 41.48 47.0404 41.3 47.9504C41.12 48.8604 40.28 50.2804 40.41 50.8004C40.52 51.3204 40.95 51.8404 40.62 52.3204C40.29 52.8004 38.6 53.1404 38.03 52.5604C37.7 52.2204 37.55 51.7804 37.43 51.3804C37.33 51.0704 37.24 50.7904 37.09 50.5904C36.75 50.1404 36.6 49.7304 35.68 49.9004C34.76 50.0604 33.68 51.2804 33.05 51.7504C32.41 52.2204 32.28 52.7503 32.31 53.1703C32.35 53.5703 31.73 53.7804 31.32 54.2304C30.91 54.6804 30.66 55.2304 30.68 55.8204C30.69 56.4204 29.73 57.3304 29.8 57.7404C29.87 58.1404 31.34 58.9804 31.88 59.5704C32.42 60.1604 33.96 62.2604 34.39 62.4504C34.77 62.6104 37.15 62.9304 38.46 62.8404C38.61 62.8304 38.75 62.8004 38.87 62.7904C40 62.5804 40.82 63.2203 41.58 64.5603C42.34 65.9203 43.07 66.9704 44.14 67.1804C45.21 67.3804 47.45 67.0804 48.17 67.0004C49.45 66.8504 49.39 67.6704 49.93 68.2604C50.47 68.8504 52.28 69.3304 52.06 70.7304C51.85 72.0704 49.7 72.3604 49.09 73.5504C48.49 74.7204 48.16 76.4804 48.17 77.4104C48.19 78.3504 47.85 78.7903 47.39 79.0603C46.93 79.3203 46.02 79.6704 45.76 80.4804C45.49 81.2804 45.02 81.4004 44.22 81.4404C43.42 81.4704 42.89 82.6803 42.67 83.5603C42.45 84.4503 42.05 85.3804 41.71 85.8204C41.38 86.2704 39.93 87.5604 39.91 88.2304C39.91 88.3704 39.99 90.5703 39.92 91.0603C38.98 90.7603 36.58 90.4204 35.82 89.9004C34.27 88.8504 33.07 87.3303 30.88 86.3803C30.95 86.0803 31.29 85.4403 31.37 85.2703C32.1 83.8203 31.75 82.6004 31.52 81.8304C31.3 81.0604 31.1 79.9403 30.33 79.8803C29.57 79.8103 28.33 79.9604 27.97 79.9604C27.6 79.9504 26.85 79.1004 26.41 79.1204C25.98 79.1304 25.94 79.6503 25.43 79.7703C25.18 79.8303 24.58 80.0104 24.07 79.6404C23.65 79.3304 23.58 78.6703 23.68 78.3403C23.84 77.8103 24.39 77.4704 24.43 76.7904C24.45 76.4604 23.73 75.7603 23.7 75.3403C23.66 74.9203 24.34 73.6104 23.73 72.9104C23.08 72.1804 23 70.8403 23.08 70.5303C23.23 69.9203 26.33 66.8504 27.13 66.6604C27.93 66.4604 28.65 66.1104 29.31 66.4404C29.97 66.7604 30.5 66.7104 30.81 66.2604C31.13 65.8104 30.77 65.3804 30.56 65.1404C30.35 64.9004 28.52 62.2504 27.89 62.0204C27.26 61.8004 26.74 61.6303 26.38 61.6703C26.03 61.7103 25.76 61.3904 25.54 61.0604C25.32 60.7304 24.08 59.0104 23.33 58.9004C22.58 58.8004 21.57 58.9004 21.04 58.6804C20.51 58.4704 19.48 57.9404 19.14 57.6504C18.8 57.3504 18.32 56.8004 17.92 56.8604C17.53 56.9204 17.43 57.2103 16.74 57.2603C16.06 57.3103 15.69 56.1204 15.64 55.5904C15.59 55.0604 14.91 52.6404 14.55 52.0804C14.19 51.5304 13.71 49.0804 12.84 49.0504C11.98 49.0304 8.32002 49.4804 8.01002 49.4104C7.69002 49.3504 7.32002 49.2604 6.87002 48.7704C6.83002 48.7404 6.80002 48.6904 6.77002 48.6404C12.13 40.4504 20.54 34.3704 30.56 32.1104C31.32 32.6704 32.07 33.2204 32.12 33.3304C32.22 33.5404 32.27 34.5104 32.58 35.0004C32.88 35.5004 33.83 36.0504 34.68 35.8604C34.98 35.7904 35.5 35.7103 35.95 35.4403C36.62 35.0403 37.69 34.7904 38.03 35.0904C38.83 35.8004 37.94 36.7603 38.13 37.1903C38.32 37.6203 39.14 38.1604 40.23 37.6104C41 37.2204 41.79 37.7504 42.06 37.4904C42.43 37.1304 42.45 36.9303 42.6 36.4203C42.83 35.6403 43.92 36.1203 44.27 35.4203C44.61 34.7103 44.89 34.3703 45.34 34.3703C45.79 34.3703 46.01 34.8504 47.08 34.7504C48.16 34.6504 48.47 34.3503 48.95 35.1203C49.43 35.9003 49.95 37.7903 50.77 38.0303C51.4 38.1903 52.32 37.8504 52.65 38.9604Z" fill="#B3CC22"/>
<path d="M40.3 91.6303L39.78 91.4703C39.48 91.3803 39.01 91.2703 38.5 91.1603C37.39 90.9203 36.14 90.6503 35.55 90.2503C34.98 89.8703 34.48 89.4403 33.94 88.9803C33 88.1803 32.04 87.3603 30.68 86.7703L30.32 86.6103L30.41 86.2303C30.48 85.9403 30.71 85.4803 30.92 85.0603C31.59 83.7203 31.27 82.6303 31.06 81.9103L31 81.6103C30.85 81.0703 30.65 80.3303 30.3 80.3003C29.82 80.2603 29.11 80.3103 28.59 80.3503C28.32 80.3703 28.13 80.4003 27.98 80.3803C27.65 80.3703 27.36 80.1503 27.01 79.9003C26.84 79.7803 26.54 79.5503 26.42 79.5303C26.41 79.5403 26.34 79.6103 26.3 79.6603C26.16 79.8303 25.94 80.0803 25.54 80.1703C25.18 80.2603 24.45 80.4403 23.8 79.9603C23.19 79.5103 23.1 78.6203 23.24 78.1603C23.33 77.8703 23.49 77.6303 23.64 77.4203C23.82 77.1703 23.95 76.9803 23.97 76.7103C23.95 76.6803 23.8 76.4603 23.7 76.3103C23.49 75.9903 23.26 75.6603 23.23 75.3403C23.21 75.1303 23.27 74.9003 23.35 74.6003C23.47 74.1303 23.64 73.4803 23.38 73.1803C22.64 72.3403 22.52 70.8403 22.63 70.3903C22.81 69.6303 26.03 66.4103 27.02 66.1803C27.18 66.1403 27.34 66.0903 27.5 66.0503C28.16 65.8603 28.83 65.6503 29.52 66.0003C30.19 66.3303 30.37 66.0703 30.43 65.9703C30.51 65.8603 30.5 65.7503 30.21 65.4103C30.17 65.3603 30.05 65.2003 29.89 64.9803C28.44 63.0103 27.92 62.5003 27.73 62.4203C27.34 62.2803 26.72 62.0703 26.44 62.1003C25.76 62.1803 25.34 61.5503 25.16 61.2803C24.67 60.5403 23.67 59.3803 23.27 59.3203C23.01 59.2803 22.69 59.2803 22.37 59.2703C21.81 59.2503 21.27 59.2403 20.87 59.0803C20.38 58.8803 19.25 58.3303 18.84 57.9703C18.77 57.9103 18.7 57.8403 18.63 57.7703C18.48 57.6303 18.13 57.3003 17.99 57.2803C17.93 57.2903 17.87 57.3203 17.76 57.3803C17.56 57.4903 17.29 57.6403 16.79 57.6803C15.74 57.7603 15.25 56.3003 15.19 55.5903C15.14 55.0703 14.47 52.7503 14.17 52.3003C14.03 52.0803 13.9 51.7303 13.74 51.2703C13.33 50.0903 13.02 49.4903 12.83 49.4803C12.42 49.4703 11.23 49.5803 10.18 49.6803C8.55 49.8403 8.11 49.8703 7.92 49.8303C7.51 49.7603 7.05 49.6103 6.55 49.0603C6.5 49.0103 6.46 48.9603 6.44 48.9303L6.25 48.6703L6.39 48.3503C11.99 39.8003 20.54 33.8603 30.47 31.6203L30.68 31.5703L30.85 31.6903C32.33 32.7703 32.48 32.9203 32.56 33.0903C32.62 33.2203 32.65 33.3803 32.69 33.6403C32.75 33.9703 32.83 34.4703 32.99 34.7103C33.21 35.0703 33.98 35.5003 34.6 35.3703L34.76 35.3403C35.04 35.2803 35.42 35.2003 35.73 35.0103C36.44 34.5803 37.77 34.1903 38.36 34.7103C39.1 35.3603 38.84 36.1803 38.68 36.6703C38.64 36.7903 38.59 36.9603 38.59 37.0203C38.61 37.0403 38.73 37.2003 38.98 37.2903C39.2 37.3703 39.56 37.4103 40.05 37.1703C40.62 36.8903 41.18 36.9803 41.56 37.0403C41.65 37.0503 41.76 37.0703 41.82 37.0803C42.01 36.8903 42.04 36.7803 42.14 36.4503L42.19 36.2703C42.39 35.6003 42.98 35.4903 43.38 35.4103C43.7 35.3503 43.83 35.3103 43.89 35.1903C44.19 34.5703 44.58 33.8903 45.37 33.8803C45.65 33.8803 45.86 33.9803 46.04 34.0703C46.28 34.1903 46.53 34.3103 47.08 34.2603C47.32 34.2403 47.51 34.2103 47.68 34.1803C48.31 34.0803 48.85 33.9903 49.39 34.8503C49.55 35.1203 49.71 35.4703 49.87 35.8503C50.13 36.4503 50.58 37.4603 50.94 37.5603C51.04 37.5903 51.19 37.6003 51.35 37.6103C51.88 37.6403 52.76 37.6903 53.09 38.8203C53.35 39.6903 52.9 40.4303 51.89 40.8003C51.59 40.9103 51.28 40.9003 51.01 40.9003C50.74 40.8903 50.51 40.8903 50.38 40.9903C50.26 41.0803 50.12 41.2503 49.96 41.4403C49.62 41.8503 49.2 42.3603 48.57 42.5903C48.09 42.7703 47.23 42.8403 46.47 42.9103C46.11 42.9403 45.62 42.9803 45.44 43.0203C45.14 43.3303 44.32 44.0403 43.87 44.2703C43.77 44.3203 43.67 44.5103 43.56 44.6803C43.4 44.9503 43.2 45.2903 42.86 45.5103C42.65 45.6403 42.4 45.7403 42.13 45.8403C41.87 45.9403 41.37 46.1403 41.3 46.2703C41.29 46.3003 41.38 46.4603 41.44 46.5603C41.61 46.8703 41.87 47.3503 41.74 48.0303C41.65 48.4703 41.45 48.9703 41.24 49.4603C41.07 49.8703 40.81 50.5003 40.84 50.6803C40.87 50.8103 40.92 50.9403 40.97 51.0703C41.13 51.4703 41.35 52.0203 40.97 52.5703C40.65 53.0303 39.86 53.2503 39.27 53.3003C38.86 53.3303 38.11 53.3203 37.66 52.8603C37.26 52.4503 37.08 51.9403 36.95 51.4903C36.87 51.2303 36.79 50.9803 36.68 50.8403L36.56 50.6803C36.31 50.3303 36.25 50.2403 35.72 50.3303C35.18 50.4203 34.45 51.0803 33.91 51.5603C33.68 51.7703 33.46 51.9603 33.29 52.0903C32.89 52.3803 32.7 52.7303 32.74 53.0903C32.79 53.6103 32.38 53.9103 32.05 54.1503C31.9 54.2603 31.75 54.3703 31.63 54.5003C31.39 54.7703 31.1 55.2103 31.12 55.7603C31.13 56.2203 30.84 56.6703 30.55 57.1103C30.45 57.2703 30.3 57.4903 30.25 57.6103C30.39 57.7803 30.83 58.1003 31.12 58.3303C31.52 58.6303 31.93 58.9403 32.19 59.2203C32.38 59.4203 32.66 59.7803 32.99 60.1903C33.45 60.7703 34.32 61.8503 34.56 61.9903C34.82 62.1003 37.11 62.4203 38.41 62.3403C38.54 62.3303 38.67 62.3103 38.78 62.2903C40.44 61.9703 41.4 63.2803 41.96 64.2903C42.72 65.6403 43.36 66.5203 44.2 66.6803C45.13 66.8503 47.16 66.6103 47.92 66.5103L48.08 66.4903C49.31 66.3403 49.67 66.9803 49.94 67.4503C50.03 67.6103 50.12 67.7603 50.24 67.8903C50.35 68.0203 50.6 68.1603 50.86 68.3203C51.59 68.7703 52.7 69.4503 52.5 70.7503C52.35 71.7003 51.5 72.2103 50.76 72.6503C50.22 72.9803 49.7 73.2803 49.49 73.7003C48.94 74.7803 48.61 76.4303 48.62 77.3403C48.64 78.3103 48.31 78.9803 47.61 79.3903C47.53 79.4403 47.44 79.4803 47.34 79.5303C46.9 79.7603 46.35 80.0503 46.19 80.5503C45.82 81.6703 45.05 81.8003 44.23 81.8403C43.84 81.8603 43.36 82.6103 43.11 83.6103C42.87 84.5503 42.44 85.5503 42.07 86.0403C41.97 86.1803 41.79 86.3703 41.57 86.6003C41.24 86.9503 40.37 87.8703 40.37 88.1803C40.37 88.2203 40.37 88.3503 40.38 88.5403C40.41 89.5603 40.43 90.6803 40.37 91.0703L40.3 91.6303ZM31.47 86.1003C32.74 86.7203 33.66 87.5103 34.56 88.2703C35.07 88.7103 35.56 89.1203 36.09 89.4803C36.53 89.7803 37.79 90.0503 38.71 90.2603C39 90.3203 39.26 90.3803 39.5 90.4403C39.51 89.8603 39.48 89.0003 39.47 88.6003C39.46 88.3803 39.46 88.2203 39.46 88.1903C39.47 87.5803 40.1 86.8703 40.91 86.0003C41.1 85.8003 41.26 85.6303 41.35 85.5103C41.65 85.1203 42.02 84.2203 42.23 83.4103C42.37 82.8503 42.93 80.9903 44.21 80.9403C44.98 80.9003 45.16 80.8003 45.33 80.2903C45.6 79.4303 46.41 79.0103 46.94 78.7303C47.02 78.6903 47.1 78.6503 47.17 78.6103C47.46 78.4403 47.73 78.1703 47.72 77.3703C47.71 76.3203 48.07 74.5103 48.69 73.2903C49.02 72.6403 49.68 72.2403 50.31 71.8703C50.94 71.4903 51.53 71.1403 51.61 70.6203C51.71 69.9803 51.2 69.6103 50.4 69.1303C50.09 68.9403 49.79 68.7603 49.59 68.5403C49.4 68.3403 49.28 68.1203 49.17 67.9303C48.93 67.5103 48.84 67.3503 48.22 67.4303L48.06 67.4503C47.18 67.5603 45.12 67.8103 44.05 67.6103C42.72 67.3503 41.9 66.0603 41.18 64.7603C40.3 63.2003 39.6 63.1003 38.96 63.2203C38.82 63.2403 38.67 63.2703 38.51 63.2803C37.19 63.3703 34.7 63.0603 34.21 62.8503C33.85 62.6903 33.33 62.0703 32.3 60.7803C31.99 60.3903 31.71 60.0403 31.54 59.8503C31.34 59.6303 30.97 59.3503 30.6 59.0803C29.85 58.5203 29.42 58.1803 29.35 57.7903C29.28 57.4103 29.53 57.0403 29.8 56.6203C29.97 56.3603 30.22 55.9703 30.22 55.8003C30.2 55.1203 30.46 54.4603 30.97 53.8903C31.15 53.6903 31.35 53.5403 31.53 53.4103C31.65 53.3203 31.82 53.1903 31.85 53.1403C31.81 52.7803 31.88 52.0003 32.77 51.3503C32.92 51.2303 33.12 51.0603 33.33 50.8703C33.98 50.2803 34.79 49.5603 35.6 49.4203C36.71 49.2303 37.07 49.7403 37.36 50.1503L37.47 50.3003C37.66 50.5603 37.77 50.8903 37.88 51.2303C37.99 51.5903 38.12 51.9703 38.37 52.2303C38.46 52.3203 38.73 52.4203 39.18 52.3903C39.74 52.3503 40.18 52.1503 40.25 52.0503C40.33 51.9303 40.29 51.7903 40.15 51.4203C40.08 51.2503 40.02 51.0803 39.98 50.9003C39.88 50.4903 40.09 49.9603 40.43 49.1203C40.61 48.6703 40.81 48.2003 40.87 47.8603C40.94 47.5103 40.81 47.2803 40.67 47.0203C40.52 46.7603 40.34 46.4303 40.45 46.0203C40.61 45.4703 41.25 45.2103 41.83 44.9903C42.05 44.9003 42.27 44.8203 42.4 44.7303C42.55 44.6403 42.67 44.4403 42.79 44.2203C42.95 43.9403 43.14 43.6303 43.47 43.4503C43.83 43.2603 44.69 42.5103 44.83 42.3403C45.02 42.1103 45.34 42.0703 46.42 41.9803C47.08 41.9203 47.91 41.8603 48.27 41.7203C48.67 41.5703 48.99 41.1903 49.27 40.8503C49.46 40.6203 49.64 40.4003 49.85 40.2503C50.24 39.9603 50.69 39.9703 51.06 39.9803C51.27 39.9903 51.46 39.9903 51.6 39.9403C52.4 39.6403 52.28 39.2403 52.23 39.0903C52.09 38.6003 51.86 38.5703 51.32 38.5403C51.12 38.5303 50.91 38.5203 50.71 38.4603C49.93 38.2303 49.46 37.1703 49.05 36.2303C48.9 35.8803 48.75 35.5603 48.63 35.3503C48.42 35.0203 48.42 35.0203 47.86 35.1103C47.67 35.1403 47.45 35.1803 47.19 35.2003C46.38 35.2703 45.95 35.0603 45.66 34.9203C45.53 34.8603 45.46 34.8203 45.4 34.8203C45.27 34.8203 45.1 34.8903 44.75 35.6103C44.47 36.1603 43.93 36.2603 43.57 36.3303C43.18 36.4003 43.13 36.4403 43.1 36.5403L43.05 36.7103C42.93 37.1103 42.85 37.4103 42.43 37.8103C42.15 38.0803 41.77 38.0203 41.43 37.9703C41.11 37.9203 40.78 37.8703 40.48 38.0203C39.7 38.4103 39.07 38.3303 38.69 38.1903C38.26 38.0403 37.91 37.7303 37.75 37.3803C37.61 37.0603 37.72 36.7303 37.82 36.4103C37.98 35.9103 38.03 35.6603 37.77 35.4303C37.62 35.3503 36.84 35.4603 36.23 35.8303C35.78 36.1003 35.29 36.2103 34.97 36.2703L34.83 36.3003C33.81 36.5303 32.64 35.9103 32.23 35.2303C31.98 34.8403 31.88 34.2503 31.81 33.8303C31.79 33.7203 31.78 33.6203 31.76 33.5503C31.57 33.3703 30.92 32.8903 30.51 32.5903C21 34.7903 12.82 40.4503 7.38 48.5803C7.68 48.8603 7.92 48.9003 8.12 48.9403C8.29 48.9503 9.3 48.8603 10.12 48.7803C11.25 48.6703 12.42 48.5603 12.88 48.5703C13.8 48.5903 14.24 49.8603 14.64 50.9803C14.76 51.3103 14.89 51.6803 14.97 51.8003C15.39 52.4303 16.08 54.9103 16.14 55.5203C16.19 56.0803 16.53 56.7703 16.74 56.7703C16.74 56.7703 16.74 56.7703 16.75 56.7703C17.04 56.7503 17.17 56.6803 17.33 56.5803C17.47 56.5003 17.64 56.4003 17.88 56.3703C18.42 56.2903 18.9 56.7403 19.29 57.1003C19.36 57.1603 19.42 57.2203 19.48 57.2703C19.74 57.4903 20.7 58.0003 21.25 58.2203C21.5 58.3203 21.97 58.3303 22.43 58.3403C22.77 58.3503 23.11 58.3603 23.43 58.4003C24.49 58.5603 25.9 60.6703 25.96 60.7603C26.23 61.1603 26.34 61.1703 26.36 61.1703C26.82 61.1103 27.39 61.3003 28.08 61.5403C28.61 61.7403 29.47 62.7903 30.67 64.4203C30.81 64.6103 30.91 64.7503 30.95 64.7903C31.15 65.0203 31.76 65.7303 31.22 66.4803C31.01 66.7803 30.39 67.4203 29.14 66.8103C28.8 66.6403 28.41 66.7403 27.8 66.9203C27.63 66.9703 27.46 67.0203 27.28 67.0703C26.65 67.2203 23.77 70.0703 23.56 70.6203C23.52 70.8103 23.59 71.9803 24.11 72.5703C24.7 73.2403 24.45 74.2003 24.28 74.8403C24.24 74.9903 24.19 75.2003 24.19 75.2703C24.2 75.3603 24.39 75.6403 24.5 75.8003C24.74 76.1503 24.95 76.4603 24.92 76.7803C24.88 77.3103 24.63 77.6703 24.42 77.9603C24.3 78.1303 24.2 78.2803 24.15 78.4203C24.1 78.6003 24.14 79.0403 24.37 79.2103C24.65 79.4103 24.99 79.3503 25.3 79.2803C25.46 79.2403 25.51 79.1803 25.63 79.0503C25.78 78.8803 26.01 78.6103 26.43 78.6003C26.83 78.5903 27.21 78.8703 27.58 79.1403C27.73 79.2503 27.96 79.4203 28.04 79.4403C28.11 79.4403 28.3 79.4203 28.54 79.4003C29.09 79.3603 29.84 79.3103 30.4 79.3503C31.4 79.4403 31.69 80.5403 31.91 81.3403L31.99 81.6303C32.22 82.4403 32.62 83.7903 31.81 85.4103C31.65 85.7203 31.54 85.9403 31.47 86.1003Z" fill="#024755"/>
<path d="M77.0299 62.0907C76.6199 61.8307 76.2299 61.5807 76.0299 61.4507C75.5299 61.1307 74.3199 60.8307 73.7799 60.4207C73.2299 60.0007 73.0099 58.8607 72.8099 57.8107C72.6099 56.7507 71.7699 56.4007 71.4299 56.3107C71.0999 56.2107 68.1799 56.5407 67.6399 56.6107C67.0999 56.6907 66.3099 59.6107 64.7899 59.0707C64.1099 58.8307 64.1199 58.4807 63.9399 57.8807C63.7599 57.2707 61.9099 56.6007 60.8999 55.7007C59.8799 54.7907 59.4699 53.8207 59.4199 53.1607C59.3299 51.9307 60.8399 51.5207 61.0199 51.0607C61.2099 50.5907 60.7899 48.3107 60.6599 47.1607C60.5199 46.0207 60.9399 45.7207 61.4399 45.4907C61.9399 45.2607 62.3899 45.6207 62.9999 45.7607C63.6099 45.8907 64.3499 44.5507 64.7199 44.0707C65.0799 43.5907 64.6299 42.6607 64.9199 42.1407C65.0099 41.9707 65.2199 41.7307 65.4699 41.4707C71.2399 46.8107 75.3999 53.9507 77.0299 62.0907Z" fill="#B3CC22"/>
<path d="M77.6899 63.0505L76.7799 62.4805C76.4899 62.3005 76.2099 62.1205 75.9999 61.9805L75.7799 61.8405C75.5999 61.7305 75.2499 61.5905 74.9199 61.4705C74.3999 61.2705 73.8599 61.0605 73.4999 60.7905C72.8099 60.2605 72.5699 59.0105 72.3599 57.9005C72.1999 57.0605 71.5299 56.8205 71.3199 56.7705C70.9899 56.7205 68.5699 56.9705 67.7799 57.0705C67.6799 57.1705 67.5099 57.4705 67.3799 57.6905C66.8599 58.5505 65.9999 60.0005 64.6499 59.5205C63.8499 59.2305 63.7099 58.7405 63.5799 58.2605C63.5599 58.1905 63.5399 58.1105 63.5099 58.0205C63.4299 57.8405 62.7499 57.4405 62.2999 57.1805C61.7299 56.8505 61.0899 56.4805 60.5999 56.0405C59.6499 55.2005 59.0399 54.1305 58.9699 53.1905C58.8899 52.1105 59.7399 51.5105 60.2399 51.1605C60.3799 51.0605 60.5599 50.9305 60.5999 50.8705C60.6799 50.5905 60.4599 49.0605 60.3399 48.2305C60.2899 47.8505 60.2299 47.5005 60.1999 47.2105C60.0299 45.8305 60.5999 45.3605 61.2399 45.0605C61.7599 44.8205 62.2099 44.9905 62.6199 45.1405C62.7699 45.2005 62.9299 45.2605 63.0999 45.2905C63.3299 45.2605 63.8899 44.4305 64.0799 44.1605C64.1799 44.0105 64.2799 43.8705 64.3599 43.7705C64.4399 43.6605 64.4099 43.3505 64.3899 43.1005C64.3499 42.7105 64.3099 42.2805 64.5199 41.9005C64.6299 41.7105 64.8199 41.4805 65.1399 41.1405L65.4599 40.8105L65.7899 41.1205C71.8299 46.7405 75.8699 53.9605 77.4799 62.0005L77.6899 63.0505ZM71.1699 55.8305C71.3499 55.8305 71.4899 55.8405 71.5699 55.8605C72.2499 56.0405 73.0599 56.6205 73.2699 57.7105C73.4299 58.5605 73.6499 59.7205 74.0599 60.0405C74.3099 60.2405 74.8099 60.4305 75.2499 60.5905C75.6499 60.7405 76.0199 60.8805 76.2799 61.0505L76.3499 61.0905C74.6799 53.8305 70.9499 47.2905 65.5099 42.1005C65.4099 42.2205 65.3599 42.2905 65.3399 42.3305C65.2699 42.4505 65.2999 42.7405 65.3199 42.9905C65.3599 43.4205 65.4099 43.9105 65.1099 44.3105C65.0399 44.4005 64.9499 44.5305 64.8599 44.6605C64.3499 45.4105 63.7099 46.3405 62.9199 46.1705C62.6899 46.1205 62.4899 46.0505 62.3099 45.9805C61.9599 45.8505 61.7999 45.8005 61.6499 45.8705C61.2999 46.0305 61.0299 46.1605 61.1399 47.0705C61.1699 47.3505 61.2199 47.7005 61.2799 48.0705C61.5499 49.9505 61.6399 50.8005 61.4799 51.2005C61.3699 51.4805 61.0999 51.6705 60.7999 51.8805C60.2599 52.2605 59.8799 52.5705 59.9199 53.0905C59.9399 53.3605 60.0899 54.3005 61.2399 55.3205C61.6599 55.6905 62.2599 56.0405 62.7899 56.3505C63.6099 56.8305 64.2699 57.2005 64.4199 57.7205C64.4499 57.8105 64.4699 57.9005 64.4899 57.9805C64.6099 58.4105 64.6299 58.4805 64.9799 58.6105C65.5699 58.8205 66.0699 58.0905 66.6099 57.1805C66.9499 56.6005 67.1999 56.1905 67.6099 56.1305C67.6099 56.1505 70.1099 55.8305 71.1699 55.8305Z" fill="#024755"/>
<path d="M40.7799 14.2501C38.9399 14.3801 35.9099 14.4201 34.7299 10.9301C33.6799 7.83007 35.1399 5.80007 35.3999 4.06007C35.6199 2.52007 35.3699 1.55007 35.0299 0.910066C34.9099 0.680066 35.1199 0.430066 35.3899 0.470066C36.8999 0.700066 40.4799 1.44007 42.8099 3.44007C45.8299 6.03007 46.9499 9.95007 44.1099 12.8701C43.4199 13.5701 41.7499 14.1801 40.7799 14.2501Z" fill="#E94E1B"/>
<path d="M39.7 14.7603C37.94 14.7603 35.38 14.3003 34.29 11.0803C33.49 8.71035 34.07 6.91035 34.54 5.47035C34.71 4.94035 34.87 4.45035 34.94 4.00035C35.11 2.82035 35 1.86035 34.62 1.14035C34.48 0.890349 34.5 0.580349 34.67 0.350349C34.85 0.100349 35.15 -0.0296511 35.46 0.0203489C36.94 0.240349 40.67 1.00035 43.1 3.09035C44.98 4.70035 46.1 6.77035 46.19 8.77035C46.26 10.4003 45.65 11.9303 44.42 13.1903C43.67 13.9603 41.89 14.6203 40.81 14.7003C40.51 14.7303 40.13 14.7603 39.7 14.7603ZM35.57 0.970349C35.94 1.83035 36.04 2.89035 35.86 4.13035C35.78 4.66035 35.61 5.19035 35.43 5.75035C34.98 7.13035 34.47 8.70035 35.18 10.7803C36.17 13.7103 38.56 13.9403 40.76 13.7803C41.64 13.7203 43.2 13.1403 43.77 12.5503C44.83 11.4603 45.34 10.2003 45.28 8.81035C45.2 7.07035 44.19 5.24035 42.51 3.79035C40.37 1.97035 37.11 1.23035 35.57 0.970349Z" fill="#024755"/>
<path d="M37.93 14.24C39.77 14.37 42.8 14.41 43.98 10.92C45.03 7.82002 43.57 5.79002 43.31 4.05002C43.09 2.55002 43.33 1.58002 43.66 0.940019C43.79 0.690019 43.56 0.420019 43.27 0.460019C41.73 0.700019 38.21 1.45002 35.91 3.42002C32.89 6.01002 31.77 9.93002 34.61 12.85C35.3 13.56 36.96 14.17 37.93 14.24Z" fill="#E94E1B"/>
<path d="M39.0101 14.7503C38.5801 14.7503 38.2001 14.7203 37.8901 14.7003C36.8001 14.6203 35.0301 13.9603 34.2801 13.1903C33.0501 11.9303 32.4401 10.4003 32.5101 8.77035C32.6001 6.77035 33.7301 4.70035 35.6001 3.09035C38.0101 1.01035 41.7101 0.250349 43.1901 0.0203489C43.5101 -0.0296511 43.8201 0.100349 44.0001 0.350349C44.1701 0.590349 44.2001 0.900349 44.0601 1.17035C43.6901 1.89035 43.5901 2.84035 43.7601 4.00035C43.8301 4.45035 43.9901 4.95035 44.1601 5.47035C44.6301 6.91035 45.2101 8.71035 44.4101 11.0803C43.3301 14.2903 40.7801 14.7503 39.0101 14.7503ZM37.9701 13.7803C40.1701 13.9403 42.5601 13.7003 43.5501 10.7803C44.2601 8.70035 43.7501 7.13035 43.3001 5.75035C43.1201 5.19035 42.9401 4.65035 42.8701 4.13035C42.6901 2.89035 42.7901 1.82035 43.1601 0.970349C41.6501 1.22035 38.3601 1.96035 36.2301 3.80035C34.5501 5.25035 33.5401 7.08035 33.4601 8.82035C33.4001 10.2103 33.9001 11.4703 34.9701 12.5603C35.5301 13.1303 37.0901 13.7103 37.9701 13.7803Z" fill="#024755"/>
<path d="M38.5401 18.5598C36.3101 18.7198 32.6501 18.7598 31.2301 14.5498C29.9601 10.8098 31.7301 8.34975 32.0401 6.24975C32.3101 4.38975 32.0001 3.21976 31.5901 2.44976C31.4401 2.17976 31.7001 1.86976 32.0201 1.90976C33.8501 2.18976 38.1701 3.07976 40.9801 5.49976C44.6301 8.62976 45.9801 13.3598 42.5501 16.8898C41.7201 17.7398 39.7101 18.4698 38.5401 18.5598Z" fill="#E94E1B"/>
<path d="M37.2401 19.0802C35.1301 19.0802 32.0901 18.5302 30.7901 14.7002C29.8301 11.8602 30.5301 9.71021 31.0901 7.98021C31.3001 7.34021 31.4901 6.74021 31.5701 6.19021C31.7801 4.75021 31.6501 3.5602 31.1701 2.6702C31.0201 2.4002 31.0401 2.0702 31.2201 1.8202C31.4101 1.5502 31.7401 1.4102 32.0801 1.4602C33.8701 1.7402 38.3501 2.6502 41.2701 5.1602C43.5201 7.0902 44.8701 9.5702 44.9701 11.9502C45.0601 13.8902 44.3301 15.7202 42.8601 17.2202C41.9701 18.1402 39.8501 18.9302 38.5601 19.0202C38.2101 19.0402 37.7501 19.0802 37.2401 19.0802ZM32.0701 2.3902C32.5801 3.4302 32.7201 4.75021 32.4901 6.32021C32.4001 6.95021 32.1901 7.59021 31.9701 8.27021C31.4201 9.95021 30.8001 11.8602 31.6701 14.4102C32.8901 18.0102 35.8101 18.3002 38.5101 18.1002C39.5901 18.0202 41.4901 17.3302 42.2101 16.5802C43.4901 15.2602 44.1301 13.6802 44.0601 12.0002C43.9701 9.8702 42.7301 7.6302 40.6801 5.8702C38.0001 3.5602 33.8601 2.6802 32.0701 2.3902Z" fill="#024755"/>
<path d="M39.7901 18.5503C42.0201 18.7103 45.6801 18.7503 47.1001 14.5403C48.3701 10.8003 46.6001 8.34033 46.2901 6.24033C46.0201 4.42033 46.3101 3.26033 46.7101 2.49033C46.8601 2.19033 46.5901 1.86033 46.2401 1.91033C44.3801 2.20033 40.1201 3.10033 37.3401 5.49033C33.6901 8.62033 32.3401 13.3503 35.7701 16.8803C36.6001 17.7303 38.6201 18.4603 39.7901 18.5503Z" fill="#E94E1B"/>
<path d="M41.09 19.07C40.58 19.07 40.12 19.04 39.76 19.01C38.47 18.92 36.35 18.13 35.46 17.21C33.99 15.7 33.27 13.88 33.35 11.94C33.46 9.55 34.81 7.08 37.05 5.15C39.95 2.66 44.4 1.74 46.18 1.46C46.53 1.4 46.87 1.54 47.07 1.82C47.26 2.08 47.28 2.42 47.14 2.7C46.68 3.58 46.56 4.75 46.76 6.17C46.84 6.72 47.04 7.32 47.24 7.96C47.8 9.69 48.5 11.84 47.54 14.68C46.24 18.52 43.19 19.07 41.09 19.07ZM39.82 18.08C42.52 18.27 45.44 17.99 46.66 14.39C47.52 11.84 46.9 9.94 46.36 8.25C46.14 7.57 45.93 6.93 45.84 6.3C45.61 4.73 45.75 3.4 46.27 2.35C44.55 2.64 40.36 3.52 37.66 5.83C35.61 7.6 34.37 9.83 34.28 11.96C34.2 13.64 34.84 15.23 36.13 16.54C36.85 17.31 38.74 18.01 39.82 18.08Z" fill="#024755"/>
<path d="M3.32983 84.3001C5.43983 83.1901 10.0298 81.3601 15.8798 81.8901C24.1398 82.6501 30.8898 84.1801 34.1498 87.3601C37.4098 90.5401 44.0198 91.1401 45.0598 91.2801C46.0898 91.4201 53.1098 91.6101 56.5998 92.7701C59.7998 93.8401 61.0498 95.6101 60.5198 96.8101C59.6498 98.7801 51.5598 99.3101 47.4698 101.17C45.8598 101.9 42.1998 101.68 40.8698 101.15C39.5398 100.62 35.8198 100.05 34.1998 100.13C32.5798 100.21 29.3298 100.38 25.3198 97.5601" fill="#024755"/>
<path d="M44.3999 102.111C42.9399 102.111 41.4699 101.901 40.6799 101.591C39.3799 101.081 35.7499 100.521 34.2099 100.601C32.5799 100.691 29.1799 100.861 25.0399 97.9406C24.8299 97.7906 24.7799 97.5006 24.9299 97.2906C25.0799 97.0806 25.3699 97.0306 25.5799 97.1806C29.4599 99.9106 32.6399 99.7506 34.1699 99.6706C35.8399 99.5806 39.6199 100.161 41.0299 100.721C42.2699 101.211 45.8199 101.411 47.2699 100.751C49.0399 99.9506 51.4699 99.4006 53.8299 98.8706C56.5699 98.2506 59.6799 97.5506 60.0899 96.6306C60.2099 96.3606 60.1899 96.0506 60.0399 95.7106C59.6199 94.7606 58.2799 93.8306 56.4499 93.2206C53.7799 92.3306 48.8399 92.0106 46.4699 91.8606C45.7499 91.8106 45.2399 91.7806 44.9899 91.7506L44.7099 91.7206C39.5699 91.1006 35.9099 89.7406 33.8199 87.7006C31.0199 84.9706 25.1399 83.2206 15.8299 82.3606C9.84992 81.8006 5.24992 83.8206 3.54992 84.7106C3.31992 84.8306 3.03992 84.7406 2.91992 84.5206C2.79992 84.2906 2.88992 84.0106 3.10992 83.8906C4.87992 82.9606 9.66992 80.8606 15.9199 81.4306C25.5799 82.3206 31.4699 84.1006 34.4699 87.0306C36.4099 88.9206 39.8899 90.1906 44.8199 90.7906L45.1099 90.8306C45.3199 90.8606 45.8499 90.8906 46.5199 90.9406C49.1199 91.1106 53.9499 91.4206 56.7299 92.3406C58.8299 93.0406 60.3399 94.1306 60.8799 95.3306C61.1399 95.9106 61.1499 96.4906 60.9299 97.0006C60.3599 98.2806 57.9299 98.8906 54.0199 99.7706C51.7099 100.291 49.3299 100.831 47.6399 101.591C46.8499 101.961 45.6299 102.111 44.3999 102.111Z" fill="#32B4A1"/>
<path d="M39.2 109C26.56 109 14.52 102.84 7.15996 92.4005C6.79996 91.8905 6.41996 91.3305 6.01996 90.7005C2.74996 85.5005 0.719958 79.5105 0.169958 73.3805C-0.640042 64.4805 1.51996 55.8405 6.40996 48.3705C12.01 39.8205 20.56 33.8805 30.49 31.6405C32.19 31.2605 33.92 30.9805 35.62 30.8305C46.04 29.8905 56.2 33.0505 64.24 39.7405C72.28 46.4405 77.23 55.8605 78.18 66.2805C80.14 87.7905 64.23 106.88 42.72 108.84C41.54 108.94 40.36 109 39.2 109ZM39.23 31.5905C38.06 31.5905 36.88 31.6405 35.7 31.7505C34.04 31.9005 32.35 32.1705 30.69 32.5405C21 34.7305 12.65 40.5305 7.17996 48.8805C2.40996 56.1705 0.299958 64.6105 1.08996 73.3005C1.63996 79.2905 3.60996 85.1405 6.79996 90.2005C7.18996 90.8105 7.55996 91.3605 7.90996 91.8605C15.77 103 29.08 109.15 42.63 107.92C63.63 106.01 79.16 87.3705 77.25 66.3705C76.32 56.2005 71.49 47.0005 63.64 40.4605C56.71 34.6805 48.15 31.5905 39.23 31.5905Z" fill="#024755"/>
<path d="M106.1 59.9601C103.2 59.9601 100.58 59.3201 98.23 58.0301C95.91 56.7501 94.09 54.9701 92.75 52.7101C91.44 50.4201 90.78 47.8701 90.78 45.0501C90.78 42.2301 91.44 39.6901 92.75 37.4301C94.09 35.1401 95.93 33.3601 98.27 32.0701C100.61 30.7901 103.24 30.1401 106.14 30.1401C108.32 30.1401 110.33 30.5001 112.17 31.2301C114.01 31.9601 115.57 33.0201 116.86 34.4101L114.89 36.3801C112.6 34.0601 109.71 32.9101 106.23 32.9101C103.91 32.9101 101.81 33.4401 99.91 34.5001C98.01 35.5601 96.52 37.0101 95.43 38.8501C94.37 40.6901 93.84 42.7601 93.84 45.0401C93.84 47.3301 94.37 49.3901 95.43 51.2301C96.52 53.0701 98.01 54.5201 99.91 55.5801C101.81 56.6401 103.91 57.1701 106.23 57.1701C109.75 57.1701 112.63 56.0001 114.89 53.6501L116.86 55.6201C115.58 57.0201 114 58.0901 112.13 58.8401C110.29 59.5901 108.28 59.9601 106.1 59.9601ZM135.66 59.9601C132.76 59.9601 130.12 59.3201 127.75 58.0301C125.41 56.7201 123.56 54.9301 122.23 52.6701C120.92 50.4101 120.26 47.8701 120.26 45.0501C120.26 42.2301 120.92 39.6901 122.23 37.4301C123.57 35.1701 125.41 33.4001 127.75 32.1101C130.12 30.8001 132.76 30.1401 135.66 30.1401C138.56 30.1401 141.17 30.7801 143.49 32.0701C145.83 33.3501 147.68 35.1401 149.01 37.4301C150.35 39.6901 151.02 42.2301 151.02 45.0501C151.02 47.8701 150.35 50.4201 149.01 52.7101C147.67 54.9701 145.83 56.7401 143.49 58.0301C141.17 59.3101 138.56 59.9601 135.66 59.9601ZM135.66 57.1901C137.98 57.1901 140.07 56.6701 141.94 55.6401C143.81 54.5801 145.27 53.1301 146.33 51.2901C147.39 49.4201 147.92 47.3401 147.92 45.0501C147.92 42.7601 147.39 40.7001 146.33 38.8601C145.27 36.9901 143.8 35.5401 141.94 34.5101C140.07 33.4501 137.98 32.9201 135.66 32.9201C133.34 32.9201 131.24 33.4501 129.34 34.5101C127.47 35.5401 125.99 36.9901 124.9 38.8601C123.84 40.7001 123.31 42.7701 123.31 45.0501C123.31 47.3401 123.84 49.4201 124.9 51.2901C125.99 53.1301 127.47 54.5801 129.34 55.6401C131.23 56.6801 133.34 57.1901 135.66 57.1901ZM177.97 59.7101L171.27 50.2901C170.52 50.3701 169.74 50.4201 168.93 50.4201H161.06V59.7101H157.96V30.4101H168.93C172.67 30.4101 175.6 31.3001 177.72 33.0901C179.84 34.8801 180.9 37.3301 180.9 40.4601C180.9 42.7501 180.31 44.6901 179.14 46.2801C178 47.8401 176.35 48.9701 174.2 49.6701L181.36 59.7101H177.97ZM168.84 47.7801C171.74 47.7801 173.96 47.1401 175.49 45.8501C177.02 44.5701 177.79 42.7701 177.79 40.4501C177.79 38.0801 177.02 36.2601 175.49 35.0101C173.96 33.7301 171.74 33.0801 168.84 33.0801H161.06V47.7701H168.84V47.7801ZM199.17 30.4101C202.91 30.4101 205.84 31.3001 207.96 33.0901C210.08 34.8801 211.14 37.3301 211.14 40.4601C211.14 43.5901 210.08 46.0401 207.96 47.8301C205.84 49.5901 202.91 50.4701 199.17 50.4701H191.3V59.7201H188.2V30.4201H199.17V30.4101ZM199.09 47.7401C201.99 47.7401 204.21 47.1101 205.74 45.8601C207.27 44.5801 208.04 42.7801 208.04 40.4601C208.04 38.0901 207.27 36.2701 205.74 35.0201C204.21 33.7401 201.99 33.0901 199.09 33.0901H191.31V47.7401H199.09ZM231.05 59.9601C228.15 59.9601 225.51 59.3201 223.14 58.0301C220.8 56.7201 218.95 54.9301 217.62 52.6701C216.31 50.4101 215.65 47.8701 215.65 45.0501C215.65 42.2301 216.31 39.6901 217.62 37.4301C218.96 35.1701 220.8 33.4001 223.14 32.1101C225.51 30.8001 228.15 30.1401 231.05 30.1401C233.95 30.1401 236.56 30.7801 238.88 32.0701C241.22 33.3501 243.07 35.1401 244.4 37.4301C245.74 39.6901 246.41 42.2301 246.41 45.0501C246.41 47.8701 245.74 50.4201 244.4 52.7101C243.06 54.9701 241.22 56.7401 238.88 58.0301C236.56 59.3101 233.96 59.9601 231.05 59.9601ZM231.05 57.1901C233.37 57.1901 235.46 56.6701 237.33 55.6401C239.2 54.5801 240.66 53.1301 241.72 51.2901C242.78 49.4201 243.31 47.3401 243.31 45.0501C243.31 42.7601 242.78 40.7001 241.72 38.8601C240.66 36.9901 239.19 35.5401 237.33 34.5101C235.46 33.4501 233.37 32.9201 231.05 32.9201C228.73 32.9201 226.63 33.4501 224.73 34.5101C222.86 35.5401 221.38 36.9901 220.29 38.8601C219.23 40.7001 218.7 42.7701 218.7 45.0501C218.7 47.3401 219.23 49.4201 220.29 51.2901C221.38 53.1301 222.86 54.5801 224.73 55.6401C226.63 56.6801 228.74 57.1901 231.05 57.1901ZM272.36 59.7101L265.66 50.2901C264.91 50.3701 264.13 50.4201 263.32 50.4201H255.45V59.7101H252.35V30.4101H263.32C267.06 30.4101 269.99 31.3001 272.11 33.0901C274.23 34.8801 275.29 37.3301 275.29 40.4601C275.29 42.7501 274.7 44.6901 273.53 46.2801C272.39 47.8401 270.74 48.9701 268.59 49.6701L275.75 59.7101H272.36ZM263.24 47.7801C266.14 47.7801 268.36 47.1401 269.89 45.8501C271.42 44.5701 272.19 42.7701 272.19 40.4501C272.19 38.0801 271.42 36.2601 269.89 35.0101C268.36 33.7301 266.14 33.0801 263.24 33.0801H255.46V47.7701H263.24V47.7801ZM300.97 51.8801H284.65L281.13 59.7101H277.91L291.3 30.4101H294.36L307.75 59.7101H304.49L300.97 51.8801ZM299.84 49.3701L292.81 33.6301L285.78 49.3701H299.84ZM324.92 59.9601C322.02 59.9601 319.4 59.3201 317.05 58.0301C314.73 56.7501 312.91 54.9701 311.57 52.7101C310.26 50.4201 309.6 47.8701 309.6 45.0501C309.6 42.2301 310.26 39.6901 311.57 37.4301C312.91 35.1401 314.75 33.3601 317.09 32.0701C319.43 30.7901 322.06 30.1401 324.96 30.1401C327.14 30.1401 329.15 30.5001 330.99 31.2301C332.83 31.9601 334.39 33.0201 335.68 34.4101L333.71 36.3801C331.42 34.0601 328.53 32.9101 325.05 32.9101C322.73 32.9101 320.63 33.4401 318.73 34.5001C316.83 35.5601 315.34 37.0101 314.25 38.8501C313.19 40.6901 312.66 42.7601 312.66 45.0401C312.66 47.3301 313.19 49.3901 314.25 51.2301C315.34 53.0701 316.83 54.5201 318.73 55.5801C320.63 56.6401 322.73 57.1701 325.05 57.1701C328.57 57.1701 331.45 56.0001 333.71 53.6501L335.68 55.6201C334.4 57.0201 332.82 58.0901 330.95 58.8401C329.1 59.5901 327.09 59.9601 324.92 59.9601ZM342.27 30.4101H345.37V59.7101H342.27V30.4101ZM367.71 59.9601C364.81 59.9601 362.17 59.3201 359.8 58.0301C357.46 56.7201 355.61 54.9301 354.28 52.6701C352.97 50.4101 352.31 47.8701 352.31 45.0501C352.31 42.2301 352.97 39.6901 354.28 37.4301C355.62 35.1701 357.46 33.4001 359.8 32.1101C362.17 30.8001 364.81 30.1401 367.71 30.1401C370.61 30.1401 373.22 30.7801 375.54 32.0701C377.88 33.3501 379.73 35.1401 381.06 37.4301C382.4 39.6901 383.07 42.2301 383.07 45.0501C383.07 47.8701 382.4 50.4201 381.06 52.7101C379.72 54.9701 377.88 56.7401 375.54 58.0301C373.22 59.3101 370.61 59.9601 367.71 59.9601ZM367.71 57.1901C370.03 57.1901 372.12 56.6701 373.99 55.6401C375.86 54.5801 377.32 53.1301 378.38 51.2901C379.44 49.4201 379.97 47.3401 379.97 45.0501C379.97 42.7601 379.44 40.7001 378.38 38.8601C377.32 36.9901 375.86 35.5401 373.99 34.5101C372.12 33.4501 370.03 32.9201 367.71 32.9201C365.39 32.9201 363.29 33.4501 361.39 34.5101C359.52 35.5401 358.04 36.9901 356.95 38.8601C355.89 40.7001 355.36 42.7701 355.36 45.0501C355.36 47.3401 355.89 49.4201 356.95 51.2901C358.04 53.1301 359.52 54.5801 361.39 55.6401C363.29 56.6801 365.4 57.1901 367.71 57.1901ZM370.73 22.8301H374.71L367.93 28.0201H365L370.73 22.8301ZM413.5 30.4101V59.7101H410.95L392.12 35.9401V59.7101H389.02V30.4101H391.57L410.45 54.1801V30.4101H413.5ZM117.86 73.9701V103.27H115.31L96.48 79.4901V103.26H93.38V73.9601H95.93L114.81 97.7301V73.9701H117.86ZM136.72 103.52C132.93 103.52 129.97 102.43 127.85 100.26C125.73 98.0801 124.67 94.9201 124.67 90.7601V73.9701H127.77V90.6301C127.77 94.0301 128.54 96.5701 130.07 98.2501C131.6 99.9201 133.82 100.76 136.72 100.76C139.65 100.76 141.88 99.9201 143.42 98.2501C144.95 96.5801 145.72 94.0401 145.72 90.6301V73.9701H148.73V90.7501C148.73 94.9101 147.67 98.0701 145.55 100.25C143.46 102.43 140.51 103.52 136.72 103.52ZM176.27 100.59V103.27H155.55V73.9701H175.64V76.6501H158.65V87.0701H173.8V89.7101H158.65V100.59H176.27V100.59ZM206.99 73.9701L194.02 103.27H190.96L177.99 73.9701H181.34L192.56 99.4201L203.86 73.9701H206.99ZM224.2 95.4401H207.88L204.36 103.27H201.14L214.53 73.9701H217.59L230.98 103.27H227.72L224.2 95.4401ZM223.07 92.9301L216.04 77.1901L209.01 92.9301H223.07ZM249.84 103.52C247.66 103.52 245.57 103.17 243.56 102.47C241.58 101.77 240.04 100.85 238.96 99.7101L240.17 97.3201C241.23 98.3801 242.64 99.2501 244.4 99.9101C246.16 100.55 247.97 100.87 249.84 100.87C252.46 100.87 254.43 100.4 255.74 99.4501C257.05 98.4701 257.71 97.2201 257.71 95.6801C257.71 94.5101 257.35 93.5701 256.62 92.8801C255.92 92.1801 255.06 91.6501 254.03 91.2901C253 90.9001 251.56 90.4801 249.72 90.0301C247.52 89.4701 245.76 88.9401 244.45 88.4401C243.14 87.9101 242.01 87.1101 241.06 86.0501C240.14 84.9901 239.68 83.5501 239.68 81.7401C239.68 80.2601 240.07 78.9201 240.85 77.7201C241.63 76.4901 242.83 75.5201 244.45 74.7901C246.07 74.0601 248.08 73.7001 250.48 73.7001C252.15 73.7001 253.79 73.9401 255.38 74.4101C257 74.8601 258.39 75.4801 259.57 76.2901L258.52 78.7601C257.29 77.9501 255.98 77.3501 254.59 76.9601C253.19 76.5401 251.83 76.3301 250.49 76.3301C247.92 76.3301 245.98 76.8301 244.67 77.8401C243.39 78.8201 242.74 80.0901 242.74 81.6501C242.74 82.8201 243.09 83.7701 243.79 84.5001C244.52 85.2001 245.41 85.7401 246.47 86.1301C247.56 86.4901 249.01 86.9001 250.82 87.3401C252.97 87.8701 254.7 88.4001 256.01 88.9301C257.35 89.4301 258.48 90.2101 259.4 91.2701C260.32 92.3001 260.78 93.7101 260.78 95.5001C260.78 96.9801 260.38 98.3301 259.57 99.5601C258.79 100.76 257.58 101.72 255.93 102.45C254.26 103.17 252.24 103.52 249.84 103.52ZM265 73.9701H268.1V103.27H265V73.9701ZM295.84 100.59V103.27H275.12V73.9701H295.21V76.6501H278.22V87.0701H293.37V89.7101H278.22V100.59H295.84V100.59ZM330.03 73.9701V103.27H327.06V79.8301L315.55 99.5401H314.09L302.58 79.9501V103.26H299.61V73.9601H302.16L314.88 95.6801L327.48 73.9601H330.03V73.9701ZM353.53 88.1601C355.46 88.5801 356.94 89.4201 357.97 90.6701C359.03 91.9001 359.56 93.4901 359.56 95.4401C359.56 97.9501 358.63 99.8901 356.76 101.26C354.92 102.6 352.18 103.27 348.56 103.27H335.08V73.9701H347.72C350.98 73.9701 353.51 74.6301 355.3 75.9401C357.11 77.2501 358.02 79.1101 358.02 81.5101C358.02 83.1301 357.62 84.5101 356.81 85.6501C356.01 86.7601 354.92 87.6001 353.53 88.1601ZM338.16 76.5201V87.1501H347.49C349.86 87.1501 351.69 86.7001 352.97 85.8101C354.25 84.8901 354.9 83.5601 354.9 81.8301C354.9 80.1001 354.26 78.7901 352.97 77.9001C351.69 76.9801 349.86 76.5201 347.49 76.5201H338.16V76.5201ZM348.5 100.71C351.12 100.71 353.1 100.26 354.44 99.3701C355.78 98.4801 356.45 97.0801 356.45 95.1801C356.45 91.5201 353.8 89.7001 348.5 89.7001H338.16V100.71H348.5ZM383.12 103.27L376.42 93.8501C375.67 93.9301 374.89 93.9801 374.08 93.9801H366.21V103.27H363.11V73.9701H374.08C377.82 73.9701 380.75 74.8601 382.87 76.6501C384.99 78.4401 386.05 80.8901 386.05 84.0201C386.05 86.3101 385.46 88.2501 384.29 89.8401C383.15 91.4001 381.5 92.5301 379.35 93.2301L386.51 103.27H383.12V103.27ZM373.99 91.3401C376.89 91.3401 379.11 90.7001 380.64 89.4101C382.18 88.1301 382.94 86.3301 382.94 84.0101C382.94 81.6401 382.17 79.8201 380.64 78.5701C379.11 77.2901 376.89 76.6401 373.99 76.6401H366.21V91.3301H373.99V91.3401ZM411.22 95.4401H394.9L391.38 103.27H388.16L401.55 73.9701H404.61L418 103.27H414.74L411.22 95.4401ZM410.09 92.9301L403.06 77.1901L396.03 92.9301H410.09Z" fill="#064755"/>
</g>
<defs>
<clipPath id="clip0_87_131">
<rect width="418" height="109.01" fill="white"/>
</clipPath>
</defs>
</svg>
